<?xml version="1.0" encoding="utf-8"?>
<!-- Generator: Adobe Illustrator 26.0.1, SVG Export Plug-In . SVG Version: 6.00 Build 0)  -->
<svg version="1.1" xmlns="http://www.w3.org/2000/svg" xmlns:xlink="http://www.w3.org/1999/xlink" x="0px" y="0px"
	 viewBox="0 0 999.45 999.41" style="enable-background:new 0 0 999.45 999.41;" xml:space="preserve">
<style type="text/css">
	.st0{fill:#255675;}
	.st1{fill:#FFFFFF;}
	.st2{fill-rule:evenodd;clip-rule:evenodd;fill:#255675;}
</style>
<g id="New_Layer">
	<g>
		<g id="XMLID_00000071555463410024190400000002786270795287009723_">
			<g>
				<path class="st0" d="M763.89,75.13c152.47,95.79,241.52,261.96,235.82,440.27c-2.47,74.74-18.98,140.75-51.64,206.57
					c-41.01,81.95-97.41,145.87-174.68,197.09c-23.93,15.93-73.1,40.59-100.63,50.64c-26.58,9.87-78.99,22.77-108.23,26.75
					c-36.26,5.12-99.3,4.55-134.81-0.76c-30.57-4.74-69.11-14.22-97.78-24.09c-43.86-14.98-105.19-49.32-146.39-81.56
					c-19.18-15.18-64.55-60.89-79.93-80.81C53.21,741.51,17.71,658.99,4.23,574.2c-4.18-26.74-5.7-95.6-2.66-124.62
					c9.49-93.14,45.57-182.67,104.05-258.55c16.33-21.06,65.5-70.19,84.87-84.79c52.97-39.65,97.4-63.17,155.31-81.95
					c37.03-11.95,86.39-21.62,121.9-23.52c70.82-3.79,141.07,6.45,205.25,29.97C698.77,40.23,741.68,61.28,763.89,75.13z
					 M901.55,342.59c-0.19-9.48-6.27-21.24-14.24-27.5c-5.89-4.56-9.3-5.5-19.75-6.07c-7.02-0.19-14.24,0.57-16.33,1.7
					c-2.08,1.14-24.49,22.77-49.74,47.81l-45.95,45.71l-19.56-19.16c-14.62-14.22-21.45-19.73-27.15-21.24
					c-10.25-2.85-13.86-2.66-22.78,1.51c-19.37,8.92-26.96,28.27-18.04,46.67c2.28,4.74,16.71,20.48,36.46,40.21
					c26.2,25.8,34.36,32.82,40.44,34.53c9.49,2.65,11.39,2.65,20.88,0c6.27-1.71,17.47-11.95,67.98-62.03
					C895.28,363.46,901.55,355.87,901.55,342.59z M750.6,798.98v-54.06c0-52.16-0.19-54.82-5.12-73.98
					c-8.93-35.66-20.32-60.89-40.07-89.91c-40.25-58.8-107.65-102.05-176-112.86c-18.8-2.85-54.12-3.99-73.1-1.9
					c-99.88,10.24-189.49,81.19-222.91,176.79c-11.01,31.49-13.67,49.13-14.81,97.12c-0.95,36.8-0.57,45.53,2.09,55.96
					c7.78,30.54,30.19,52.54,60.19,59.75c18.22,4.17,392.27,4.36,408.6,0c25.06-6.45,43.86-21.62,54.87-44.01L750.6,798.98z
					 M623.39,360.8c28.67-59.56,16.9-127.66-30.19-174.51c-18.42-18.4-36.45-29.59-60.38-37.56c-15.57-5.12-20.69-5.88-43.29-6.26
					c-33.98-0.76-48.6,2.46-75.95,16.5c-35.5,18.21-63.79,52.55-76.32,92.76c-3.8,12.14-4.37,18.21-4.37,42.68
					s0.57,30.54,4.37,42.68c16.9,54.06,58.86,93.33,113.92,106.42c24.87,6.07,57.53,4.55,81.26-3.61
					C573.27,426.05,605.54,397.79,623.39,360.8z"/>
				<path class="st1" d="M887.31,315.09c7.97,6.26,14.05,18.02,14.24,27.5c0,13.28-6.27,20.87-67.78,82.14
					c-50.51,50.08-61.71,60.32-67.98,62.03c-9.49,2.65-11.39,2.65-20.88,0c-6.08-1.71-14.24-8.73-40.44-34.53
					c-19.75-19.73-34.18-35.47-36.46-40.21c-8.92-18.4-1.33-37.75,18.04-46.67c8.92-4.17,12.53-4.36,22.78-1.51
					c5.7,1.51,12.53,7.02,27.15,21.24l19.56,19.16l45.95-45.71c25.25-25.04,47.66-46.67,49.74-47.81c2.09-1.13,9.31-1.89,16.33-1.7
					C878.01,309.59,881.42,310.53,887.31,315.09z"/>
				<path class="st1" d="M750.6,744.92v54.06l-6.26,12.9c-11.01,22.39-29.81,37.56-54.87,44.01c-16.33,4.36-390.38,4.17-408.6,0
					c-30-7.21-52.41-29.21-60.19-59.75c-2.66-10.43-3.04-19.16-2.09-55.96c1.14-47.99,3.8-65.63,14.81-97.12
					c33.42-95.6,123.03-166.55,222.91-176.79c18.98-2.09,54.3-0.95,73.1,1.9c68.35,10.81,135.75,54.06,176,112.86
					c19.75,29.02,31.14,54.25,40.07,89.91C750.41,690.1,750.6,692.76,750.6,744.92z"/>
				<path class="st1" d="M593.2,186.29c47.09,46.85,58.86,114.95,30.19,174.51c-17.85,36.99-50.12,65.25-90.95,79.1
					c-23.73,8.16-56.39,9.68-81.26,3.61c-55.06-13.09-97.02-52.36-113.92-106.42c-3.8-12.14-4.37-18.21-4.37-42.68
					s0.57-30.54,4.37-42.68c12.53-40.21,40.82-74.55,76.32-92.76c27.35-14.04,41.97-17.26,75.95-16.5
					c22.6,0.38,27.72,1.14,43.29,6.26C556.75,156.7,574.78,167.89,593.2,186.29z"/>
			</g>
			<g>
			</g>
		</g>
		<path class="st2" d="M758.67,97.6c-1.4,1.5-0.6,3.4,1.4,3.4c1.4,0,1.9-0.5,1.7-1.7C761.47,97.5,759.77,96.6,758.67,97.6z"/>
	</g>
</g>
<g id="MasterLayer_1">
</g>
</svg>
