<svg width="22" height="22" viewBox="0 0 22 22" fill="none" xmlns="http://www.w3.org/2000/svg">
<path d="M12.771 19.9691L11.697 21.074C11.2422 21.5419 10.4962 21.5524 10.0333 21.0976L0.357903 11.697C-0.109943 11.2423 -0.120499 10.4963 0.33436 10.0334L9.7398 0.357912C10.1946 -0.109933 10.9405 -0.120489 11.4035 0.33437L12.5084 1.40845C12.9812 1.86808 12.9822 2.6289 12.5126 3.09204L6.67861 8.80969L20.7832 8.6101C21.4359 8.60087 21.9684 9.11855 21.9777 9.77127L21.9999 11.3417C22.0091 11.9944 21.4914 12.527 20.8387 12.5362L6.73417 12.7358L12.7276 18.2861C13.215 18.7357 13.2356 19.4962 12.771 19.9691Z" fill="white"/>
</svg>
