<svg width="22" height="22" viewBox="0 0 22 22" fill="none" xmlns="http://www.w3.org/2000/svg">
<path d="M9.47402 1.41194L10.577 0.33582C11.0441 -0.119833 11.7901 -0.110623 12.2408 0.356359L21.6642 10.0103C22.1198 10.4774 22.1106 11.2234 21.6437 11.6741L11.9848 21.0974C11.5178 21.5531 10.7717 21.5438 10.321 21.0769L9.24488 19.9738C8.78438 19.5018 8.80359 18.7412 9.2853 18.2907L15.2689 12.7293L1.16347 12.5552C0.510706 12.5471 -0.0079627 12.0155 9.5364e-05 11.3627L0.0194832 9.7922C0.0275413 9.13944 0.559176 8.62077 1.21193 8.62883L15.3174 8.80296L9.47287 3.09561C8.99753 2.63323 8.9971 1.87238 9.47402 1.41194Z" fill="white"/>
</svg>
