<?xml version="1.0" encoding="UTF-8" standalone="no"?>
<!-- Created with Inkscape (http://www.inkscape.org/) -->

<svg
   version="1.1"
   id="svg2"
   xml:space="preserve"
   width="351.74933"
   height="323.18799"
   viewBox="0 0 351.74933 323.18799"
   sodipodi:docname="login.ai"
   xmlns:inkscape="http://www.inkscape.org/namespaces/inkscape"
   xmlns:sodipodi="http://sodipodi.sourceforge.net/DTD/sodipodi-0.dtd"
   xmlns="http://www.w3.org/2000/svg"
   xmlns:svg="http://www.w3.org/2000/svg"><defs
     id="defs6"><clipPath
       clipPathUnits="userSpaceOnUse"
       id="clipPath16"><path
         d="M 0,242.391 H 263.812 V 0 H 0 Z"
         id="path14" /></clipPath><clipPath
       clipPathUnits="userSpaceOnUse"
       id="clipPath532"><path
         d="M 76.1011,238.172 H 111.098 V 203.299 H 76.1011 Z"
         id="path530" /></clipPath></defs><sodipodi:namedview
     id="namedview4"
     pagecolor="#ffffff"
     bordercolor="#666666"
     borderopacity="1.0"
     inkscape:pageshadow="2"
     inkscape:pageopacity="0.0"
     inkscape:pagecheckerboard="0" /><g
     id="g8"
     inkscape:groupmode="layer"
     inkscape:label="login"
     transform="matrix(1.3333333,0,0,-1.3333333,0,323.188)"><g
       id="g10"><g
         id="g12"
         clip-path="url(#clipPath16)"><g
           id="g18"
           transform="translate(67.0228,16.3433)"><path
             d="m 0,0 c -32.316,10.867 -60.347,37.874 -66.087,71.405 -5.74,33.531 15.463,71.327 48.779,78.596 15.754,3.439 32.757,0.367 47.807,6.139 28.386,10.886 38.032,47.716 64.257,63.076 25.265,14.798 59.905,4.125 78.729,-18.272 18.822,-22.398 24.314,-53.302 23.161,-82.504 C 194.951,75.537 176.672,29.268 137.656,11.127 104.777,-4.159 35.264,-8.492 0,0"
             style="fill:#99ddf8;fill-opacity:1;fill-rule:evenodd;stroke:none"
             id="path20" /></g><g
           id="g22"
           transform="translate(28.0003,23.7414)"><path
             d="m 0,0 c 7.12,-11.79 21.79,-16.215 35.159,-15.934 13.368,0.281 26.44,4.265 39.789,5.073 21.156,1.277 41.889,-5.425 62.685,-9.67 20.798,-4.244 43.528,-5.759 62.075,4.922 4.541,2.613 8.922,6.184 10.761,11.239 1.838,5.053 0.176,11.763 -4.608,13.851 -1.855,0.808 -3.918,0.859 -5.928,0.898 C 155.379,11.239 110.824,12.1 66.27,12.962 43.59,13.4 18.589,12.998 1.575,-2.633"
             style="fill:#99ddf8;fill-opacity:1;fill-rule:evenodd;stroke:none"
             id="path24" /></g><g
           id="g26"
           transform="translate(219.9233,156.627)"><path
             d="M 0,0 C -2.74,-2.617 -3.783,-6.692 -1.169,-9.837 1.293,-12.796 6.055,-13.423 9.129,-11.065 16.551,-5.368 8.815,5.141 0.806,2.966 -0.677,2.564 -0.307,0.461 1.158,0.378 3.499,0.246 6.006,0.156 7.878,-1.476 9.886,-3.228 9.931,-6.192 8.283,-8.208 3.916,-13.545 -3.665,-5.686 0.919,-0.914 1.499,-0.312 0.605,0.578 0,0"
             style="fill:#333132;fill-opacity:1;fill-rule:evenodd;stroke:none"
             id="path28" /></g><g
           id="g30"
           transform="translate(41.335,182.516)"><path
             d="m 0,0 c -2.756,1.238 -6.147,0.952 -8.654,-0.729 -2.507,-1.68 -4.043,-4.7 -3.921,-7.706 0.096,-2.349 1.037,-5.022 -0.464,-6.838 -1.162,-1.401 -3.234,-1.533 -4.899,-2.282 -3.164,-1.423 -4.739,-5.584 -3.3,-8.727 0.778,-1.701 2.322,-3.267 2.027,-5.113 -0.19,-1.195 -1.144,-2.14 -2.2,-2.742 -1.057,-0.6 -2.24,-0.944 -3.333,-1.475 -3.985,-1.939 -6.404,-6.443 -6.291,-10.852 0.116,-4.41 2.556,-8.593 6.055,-11.304 3.501,-2.711 7.963,-4.028 12.396,-4.193 4.443,-0.164 9.09,0.871 12.479,3.73 2.546,2.147 4.206,5.155 5.431,8.24 2.33,5.868 3.274,12.274 2.737,18.558 -0.56,6.522 -2.68,12.842 -3.144,19.371 -0.155,2.187 -0.124,4.404 -0.614,6.543 -0.49,2.138 -1.591,4.253 -3.476,5.389"
             style="fill:#333132;fill-opacity:1;fill-rule:evenodd;stroke:none"
             id="path32" /></g><g
           id="g34"
           transform="translate(40.3248,181.671)"><path
             d="m 0,0 c 2.524,5.218 7.543,9.174 13.23,10.428 3.492,0.77 7.324,0.51 10.393,-1.318 3.07,-1.828 5.191,-5.394 4.724,-8.922 -0.29,-2.181 -1.48,-4.127 -2.235,-6.194 -0.755,-2.07 -1.003,-4.591 0.401,-6.291 1.26,-1.527 3.419,-1.903 5.139,-2.89 2.456,-1.412 4,-4.26 3.838,-7.077 -0.162,-2.817 -2.025,-5.47 -4.628,-6.593 2.585,-0.298 5.015,-1.736 6.51,-3.852 1.497,-2.118 2.034,-4.878 1.441,-7.398 -0.851,-3.611 -3.803,-6.374 -6.978,-8.325 -4.409,-2.711 -9.524,-4.283 -14.705,-4.515 -5.498,-0.248 -11.588,1.37 -14.58,5.965 -1.962,3.016 -2.262,6.78 -2.482,10.367 -0.664,10.827 -1.12,21.666 -1.575,32.503 -0.073,1.743 -0.145,3.514 0.269,5.21"
             style="fill:#333132;fill-opacity:1;fill-rule:evenodd;stroke:none"
             id="path36" /></g><g
           id="g38"
           transform="translate(58.8234,132.755)"><path
             d="m 0,0 49.295,-18.375 -4.706,19.794 12.819,3.24 c 0,0 13.79,-38.695 4.213,-39.731 -16.765,-1.814 -42.133,4.788 -42.133,4.788 z"
             style="fill:#333132;fill-opacity:1;fill-rule:evenodd;stroke:none"
             id="path40" /></g><g
           id="g42"
           transform="translate(54.5142,48.2977)"><path
             d="m 0,0 c 0,0 59.552,64.633 99.755,50.523 40.204,-14.112 57.178,-79.942 57.178,-79.942 l -32.022,0.517 c 0,0 -25.288,49.72 -37.628,47.794 C 74.941,16.964 36.83,-30.361 36.83,-30.361 Z"
             style="fill:#333132;fill-opacity:1;fill-rule:evenodd;stroke:none"
             id="path44" /></g><g
           id="g46"
           transform="translate(73.3551,87.5359)"><path
             d="m 0,0 2.472,-37.922 c -12.837,-15.694 -57.527,4.597 -57.527,4.597 l -0.522,15.855 -1.038,37.764 c 1.03,15.038 15.077,22.418 15.077,22.418 5.807,2.88 14.664,4.513 22.643,4.12 C -10.566,46.424 -8.507,42.457 -5.076,34.9 -2.304,28.795 5.219,18.847 0,0"
             style="fill:#333132;fill-opacity:1;fill-rule:evenodd;stroke:none"
             id="path48" /></g><g
           id="g50"
           transform="translate(26.6524,47.0662)"><path
             d="m 0,0 c 0,0 -6.835,-27.662 13.997,-32.023 20.832,-4.358 97.45,5.84 117.406,4.096 19.956,-1.742 76.708,-5.036 76.708,-5.036 l 4.155,32.85 c 0,0 -88.317,4.21 -98.299,1.742 C 103.986,-0.836 0,0 0,0"
             style="fill:#333132;fill-opacity:1;fill-rule:evenodd;stroke:none"
             id="path52" /></g><g
           id="g54"
           transform="translate(36.6401,95.4276)"><path
             d="m 0,0 c 0,0 -6.247,-36.604 2.563,-35.702 28.976,2.963 46.23,3.362 46.23,3.362 l 4.802,-9.915 c 0.112,-1.689 -54.874,-17.339 -63.709,-12.165 -6.238,3.652 -16.176,13.494 -11.665,42.904 l 1.066,9.859 z"
             style="fill:#333132;fill-opacity:1;fill-rule:evenodd;stroke:none"
             id="path56" /></g><g
           id="g58"
           transform="translate(62.7856,42.8789)"><path
             d="M 0,0 -0.059,2.454 36.31,7.561 45.964,41.127 86.252,42.098 75.381,5.767 Z"
             style="fill:#333132;fill-opacity:1;fill-rule:evenodd;stroke:none"
             id="path60" /></g><g
           id="g62"
           transform="translate(128.1613,68.0972)"><path
             d="m 0,0 c 0.04,-1.637 -1.263,-2.999 -2.91,-3.039 -1.647,-0.038 -3.014,1.258 -3.055,2.895 -0.04,1.636 1.263,2.997 2.91,3.037 C -1.408,2.931 -0.041,1.637 0,0"
             style="fill:#333132;fill-opacity:1;fill-rule:evenodd;stroke:none"
             id="path64" /></g><g
           id="g66"
           transform="translate(129.3553,68.126)"><path
             d="m 0,0 c 0.056,-2.293 -1.769,-4.198 -4.075,-4.253 -2.306,-0.056 -4.222,1.759 -4.277,4.052 -0.056,2.293 1.768,4.197 4.074,4.251 C -1.971,4.106 -0.056,2.291 0,0"
             style="fill:#333132;fill-opacity:1;fill-rule:evenodd;stroke:none"
             id="path68" /></g><g
           id="g70"
           transform="translate(20.7019,119.705)"><path
             d="m 0,0 c 0,0 -6.76,-6.453 -8.27,-30.871 l 26.159,2.878 c 0,0 4.359,41.588 -17.889,27.993"
             style="fill:#333132;fill-opacity:1;fill-rule:evenodd;stroke:none"
             id="path72" /></g><g
           id="g74"
           transform="translate(212.7253,193.134)"><path
             d="m 0,0 c 0,0 9.273,-20.707 11.858,-19.621 2.587,1.084 26.536,15.859 26.536,15.859 0,0 -9.816,18.538 -11.858,19.62 C 24.493,16.939 0,0 0,0"
             style="fill:#333132;fill-opacity:1;fill-rule:evenodd;stroke:none"
             id="path76" /></g><g
           id="g78"
           transform="translate(239.2613,208.992)"><path
             d="m 0,0 c 0.116,-0.044 -0.566,-2.168 -1.764,-5.565 -1.197,-3.398 -2.911,-8.069 -4.855,-13.208 -0.049,-0.127 -0.097,-0.253 -0.141,-0.371 l -0.131,-0.345 -0.368,0.059 c -5.364,0.869 -10.192,1.701 -13.676,2.346 -3.484,0.646 -5.622,1.104 -5.601,1.225 0.019,0.121 2.192,-0.116 5.702,-0.6 3.51,-0.486 8.356,-1.216 13.722,-2.08 l -0.497,-0.288 c 0.043,0.118 0.09,0.245 0.139,0.371 1.945,5.14 3.754,9.776 5.106,13.115 C -1.012,-2 -0.117,0.043 0,0"
             style="fill:#333132;fill-opacity:1;fill-rule:evenodd;stroke:none"
             id="path80" /></g><g
           id="g82"
           transform="translate(221.5363,175.945)"><path
             d="m 0,0 c -0.244,0.053 0.477,3.455 1.61,7.593 1.136,4.141 2.249,7.434 2.488,7.358 C 4.337,14.875 3.617,11.473 2.488,7.356 1.359,3.24 0.245,-0.054 0,0"
             style="fill:#333132;fill-opacity:1;fill-rule:evenodd;stroke:none"
             id="path84" /></g><g
           id="g86"
           transform="translate(249.5393,193.49)"><path
             d="m 0,0 c -0.039,-0.246 -3.381,0.075 -7.465,0.72 -4.083,0.642 -7.361,1.364 -7.323,1.61 0.041,0.246 3.381,-0.075 7.467,-0.718 C -3.24,0.968 0.038,0.247 0,0"
             style="fill:#333132;fill-opacity:1;fill-rule:evenodd;stroke:none"
             id="path88" /></g><g
           id="g90"
           transform="translate(33.8029,170.888)"><path
             d="m 0,0 0.591,-7.751 c 0,0 -6.628,-0.89 -4.737,-6.902 1.889,-6.012 6.422,-3.38 6.422,-3.38 0,0 1.134,-15.406 17.007,-10.522 12.631,3.887 11.858,20.152 10.255,34.017 -0.621,5.372 -5.732,9.065 -11.07,8.031 L 8.926,11.644 C 3.412,10.577 -0.426,5.572 0,0"
             style="fill:#333132;fill-opacity:1;fill-rule:evenodd;stroke:none"
             id="path92" /></g><g
           id="g94"
           transform="translate(34.3947,156.702)"><path
             d="m 0,0 4.277,-22.675 c 0.963,-5.11 6.029,-8.378 11.114,-7.172 4.712,1.118 7.729,5.696 6.883,10.438 l -2.321,12.997 z"
             style="fill:#333132;fill-opacity:1;fill-rule:evenodd;stroke:none"
             id="path96" /></g><g
           id="g98"
           transform="translate(51.9504,156.446)"><path
             d="M 0,0 C 0.061,0.044 0.19,-0.201 0.48,-0.234 0.762,-0.263 1.193,0.028 1.298,0.644 1.443,1.254 1.362,2.057 1.275,2.987 1.2,3.986 1.127,4.975 1.05,6.009 0.78,10.3 0.762,13.791 1.013,13.807 1.265,13.823 1.687,10.357 1.957,6.066 2.01,5.029 2.06,4.04 2.111,3.039 2.147,2.122 2.182,1.215 1.914,0.463 1.704,-0.321 0.893,-0.806 0.387,-0.574 -0.098,-0.329 -0.033,0.006 0,0"
             style="fill:#333132;fill-opacity:1;fill-rule:evenodd;stroke:none"
             id="path100" /></g><g
           id="g102"
           transform="translate(57.0994,143.915)"><path
             d="m 0,0 c 0.071,-0.083 -0.56,-0.775 -1.865,-1.521 -1.291,-0.744 -3.307,-1.478 -5.629,-1.525 -2.322,-0.05 -4.37,0.597 -5.69,1.287 -1.335,0.691 -1.994,1.355 -1.928,1.442 0.117,0.251 3.212,-1.932 7.599,-1.825 C -3.126,-2.066 -0.126,0.246 0,0"
             style="fill:#333132;fill-opacity:1;fill-rule:evenodd;stroke:none"
             id="path104" /></g><g
           id="g106"
           transform="translate(53.9989,153.265)"><path
             d="m 0,0 c 0.089,-0.064 -0.115,-0.572 -0.818,-1.063 -0.679,-0.485 -1.928,-0.881 -3.239,-0.47 -1.307,0.425 -2.09,1.471 -2.357,2.258 -0.283,0.807 -0.152,1.34 -0.042,1.338 0.138,0.012 0.246,-0.458 0.623,-1.065 0.364,-0.602 1.065,-1.351 2.053,-1.672 0.991,-0.312 1.999,-0.111 2.65,0.168 C -0.469,-0.23 -0.105,0.089 0,0"
             style="fill:#333132;fill-opacity:1;fill-rule:evenodd;stroke:none"
             id="path108" /></g><g
           id="g110"
           transform="translate(33.8957,155.484)"><path
             d="m 0,0 c 0.002,-0.106 -0.387,-0.292 -1.076,-0.091 -0.33,0.103 -0.766,0.396 -0.953,0.904 -0.094,0.248 -0.136,0.552 -0.042,0.869 0.075,0.31 0.374,0.645 0.703,0.753 0.45,0.182 1.08,0.074 1.371,-0.418 L -0.768,1.618 C -1.272,2.887 -1.516,3.861 -1.327,3.944 -1.141,4.027 -0.579,3.193 0.028,1.968 L -0.743,1.569 C -0.761,1.595 -0.888,1.651 -1.045,1.59 -1.214,1.54 -1.291,1.339 -1.233,1.073 -1.178,0.82 -1.008,0.631 -0.803,0.487 -0.385,0.213 0.01,0.133 0,0"
             style="fill:#333132;fill-opacity:1;fill-rule:evenodd;stroke:none"
             id="path112" /></g><g
           id="g114"
           transform="translate(58.3072,166.361)"><path
             d="M 0,0 C -0.244,-0.056 -0.569,0.456 -0.726,1.141 -0.881,1.826 -0.808,2.425 -0.563,2.48 -0.319,2.536 0.005,2.024 0.161,1.339 0.318,0.654 0.244,0.055 0,0"
             style="fill:#333132;fill-opacity:1;fill-rule:evenodd;stroke:none"
             id="path116" /></g><g
           id="g118"
           transform="translate(44.8688,165.118)"><path
             d="M 0,0 C -0.242,-0.067 -0.593,0.436 -0.785,1.121 -0.977,1.808 -0.935,2.416 -0.692,2.484 -0.452,2.55 -0.101,2.049 0.091,1.362 0.283,0.677 0.243,0.068 0,0"
             style="fill:#333132;fill-opacity:1;fill-rule:evenodd;stroke:none"
             id="path120" /></g><g
           id="g122"
           transform="translate(46.1168,170.762)"><path
             d="m 0,0 c -0.077,-0.244 -0.792,-0.236 -1.584,-0.456 -0.799,-0.194 -1.418,-0.552 -1.605,-0.375 -0.193,0.15 0.302,0.972 1.375,1.249 C -0.745,0.701 0.094,0.226 0,0"
             style="fill:#333132;fill-opacity:1;fill-rule:evenodd;stroke:none"
             id="path124" /></g><g
           id="g126"
           transform="translate(59.8386,172.925)"><path
             d="m 0,0 c -0.101,-0.236 -0.888,-0.12 -1.809,-0.21 -0.923,-0.069 -1.678,-0.321 -1.818,-0.106 -0.15,0.193 0.566,0.906 1.74,1.005 C -0.713,0.795 0.113,0.215 0,0"
             style="fill:#333132;fill-opacity:1;fill-rule:evenodd;stroke:none"
             id="path128" /></g><g
           id="g130"
           transform="translate(34.3947,163.136)"><path
             d="m 0,0 c 4.431,4.295 5.732,11.45 6.934,17.484 4.103,-2.971 9.746,-3.701 14.477,-1.875 1.484,-1.734 3.229,-3.25 5.156,-4.478 0.55,-0.351 1.199,-0.691 1.823,-0.503 0.743,0.222 1.075,1.07 1.251,1.823 0.567,2.405 0.588,4.981 -0.256,7.307 -0.845,2.323 -2.615,4.366 -4.934,5.258 -2.477,0.954 -5.264,0.539 -7.837,-0.124 C 12.739,23.893 9.005,22.358 5.551,20.346 2.16,18.372 -1.095,15.758 -2.535,12.125 -3.972,8.489 -3.965,1.423 -0.499,-0.414"
             style="fill:#333132;fill-opacity:1;fill-rule:evenodd;stroke:none"
             id="path132" /></g><g
           id="g134"
           transform="translate(52.4778,152.424)"><path
             d="m 0,0 c 0.213,-1.222 -0.836,-2.412 -2.269,-2.116 -1.434,0.311 -1.904,1.82 -1.209,2.852 0.692,1.046 1.617,1.665 2.152,1.568 C -0.797,2.175 -0.204,1.235 0,0"
             style="fill:#333132;fill-opacity:1;fill-rule:evenodd;stroke:none"
             id="path136" /></g><g
           id="g138"
           transform="translate(46.9565,159.622)"><path
             d="m 0,0 c 0.22,-1.223 -1.299,-2.517 -3.419,-2.611 -2.119,-0.099 -3.752,1.055 -3.642,2.291 0.106,1.248 1.645,2.134 3.436,2.221 C -1.833,1.977 -0.22,1.231 0,0"
             style="fill:#333132;fill-opacity:1;fill-rule:evenodd;stroke:none"
             id="path140" /></g><g
           id="g142"
           transform="translate(63.7388,160.984)"><path
             d="m 0,0 c 0.249,-1.218 -1.082,-2.514 -3,-2.611 -1.921,-0.099 -3.378,1.055 -3.255,2.291 0.12,1.246 1.474,2.136 3.021,2.221 C -1.685,1.973 -0.248,1.228 0,0"
             style="fill:#333132;fill-opacity:1;fill-rule:evenodd;stroke:none"
             id="path144" /></g><g
           id="g146"
           transform="translate(34.2126,142.617)"><path
             d="m 0,0 c -0.255,0.005 -0.396,2.492 -0.556,5.547 -0.156,3.056 -0.273,5.543 -0.02,5.575 0.245,0.033 0.77,-2.434 0.927,-5.528 C 0.513,2.499 0.246,-0.007 0,0"
             style="fill:#333132;fill-opacity:1;fill-rule:evenodd;stroke:none"
             id="path148" /></g><g
           id="g150"
           transform="translate(60.5481,132.92)"><path
             d="m 0,0 c -4.29,1.695 28.704,-10.485 28.704,-10.485 l -3.347,-22.441 -12.55,4.094 z"
             style="fill:#333132;fill-opacity:1;fill-rule:evenodd;stroke:none"
             id="path152" /></g><g
           id="g154"
           transform="translate(40.915,183.685)"><path
             d="M 0,0 C 1.038,1.558 1.38,3.556 0.917,5.367 0.537,6.859 -0.595,8.338 -2.14,8.416 -3.018,8.461 -3.869,8.036 -4.514,7.441 -6.109,5.974 -6.519,3.39 -5.456,1.506 c 1.062,-1.884 3.492,-2.885 5.583,-2.3"
             style="fill:#333132;fill-opacity:1;fill-rule:evenodd;stroke:none"
             id="path156" /></g><g
           id="g158"
           transform="translate(238.0333,39.9639)"><path
             d="M 0,0 C 0,0 10.732,15.298 9.424,9.507 8.115,3.715 -2.786,-22.027 -2.786,-22.027 Z"
             style="fill:#333132;fill-opacity:1;fill-rule:evenodd;stroke:none"
             id="path160" /></g><g
           id="g162"
           transform="translate(82.3847,63.0851)"><path
             d="m 0,0 c 0,0 14.18,4.423 13.694,2.968 -0.487,-1.454 -2.9,-1.507 -5.312,-3.854 0,0 15.852,-0.17 15.089,-1.469 -0.762,-1.298 -11.08,-1.626 -11.143,-1.846 -0.061,-0.222 11.286,-0.498 11.032,-1.698 -0.257,-1.202 -10.802,-0.909 -10.802,-0.909 0,0 9.776,-1.034 9.575,-2.328 -0.2,-1.295 -9.212,-0.362 -9.212,-0.362 0,0 7.543,-0.857 7.346,-2.029 -0.119,-0.715 -22.085,-0.876 -22.13,-1.402 C -1.887,-13.205 0,0 0,0"
             style="fill:#333132;fill-opacity:1;fill-rule:evenodd;stroke:none"
             id="path164" /></g><g
           id="g166"
           transform="translate(104.3373,132.92)"><path
             d="m 0,0 c 0,0 -8.611,11.969 -7.075,11.962 1.535,-0.006 2.335,-2.259 5.316,-3.801 0,0 -4.757,14.966 -3.286,14.652 1.474,-0.314 4.987,-9.92 5.218,-9.909 0.228,0.01 -3.032,10.773 -1.809,10.904 1.221,0.132 4.216,-9.879 4.216,-9.879 0,0 -2.052,9.517 -0.757,9.73 1.296,0.214 3.204,-8.554 3.204,-8.554 0,0 -1.526,7.363 -0.349,7.543 C 5.395,22.757 11.895,4.493 11.895,4.493 11.724,4.493 0,0 0,0"
             style="fill:#333132;fill-opacity:1;fill-rule:evenodd;stroke:none"
             id="path168" /></g><g
           id="g170"
           transform="translate(24.9275,99.9944)"><path
             d="m 0,0 c 0.094,0.009 0.415,-0.559 0.433,-1.689 -0.004,-0.549 -0.229,-1.345 -0.93,-1.841 -0.335,-0.248 -0.834,-0.425 -1.35,-0.312 -0.511,0.106 -0.897,0.451 -1.174,0.753 -0.562,0.65 -0.927,1.035 -1.502,1.103 -0.551,0.087 -1.049,-0.097 -1.368,-0.387 -0.67,-0.609 -0.649,-1.311 -0.785,-1.302 -0.09,-0.058 -0.438,0.751 0.316,1.739 0.368,0.472 1.109,0.857 1.931,0.777 0.406,-0.034 0.841,-0.178 1.207,-0.456 0.358,-0.269 0.612,-0.593 0.864,-0.86 0.903,-1.225 2.086,-0.03 2.15,0.852 C -0.064,-0.694 -0.148,-0.01 0,0"
             style="fill:#333132;fill-opacity:1;fill-rule:evenodd;stroke:none"
             id="path172" /></g><g
           id="g174"
           transform="translate(32.6734,106.642)"><path
             d="M 0,0 C -0.058,0.074 0.263,0.643 1.226,1.245 1.699,1.528 2.5,1.75 3.29,1.415 3.677,1.259 4.089,0.928 4.262,0.43 4.436,-0.059 4.34,-0.567 4.227,-0.959 3.958,-1.773 3.819,-2.284 4.059,-2.81 4.27,-3.322 4.687,-3.648 5.104,-3.767 5.973,-4.019 6.566,-3.636 6.63,-3.757 6.726,-3.804 6.212,-4.519 4.972,-4.394 4.375,-4.328 3.658,-3.899 3.299,-3.159 3.117,-2.794 3.016,-2.35 3.063,-1.896 3.109,-1.452 3.253,-1.067 3.351,-0.715 3.935,0.688 2.292,1.072 1.5,0.668 0.63,0.305 0.085,-0.122 0,0"
             style="fill:#333132;fill-opacity:1;fill-rule:evenodd;stroke:none"
             id="path176" /></g><g
           id="g178"
           transform="translate(32.1504,123.203)"><path
             d="M 0,0 C -0.058,0.076 0.263,0.643 1.225,1.245 1.697,1.528 2.5,1.752 3.29,1.415 3.677,1.259 4.089,0.928 4.26,0.43 4.436,-0.059 4.34,-0.568 4.227,-0.96 3.958,-1.773 3.817,-2.285 4.059,-2.808 4.27,-3.322 4.687,-3.648 5.102,-3.768 5.973,-4.019 6.566,-3.636 6.63,-3.757 6.726,-3.804 6.212,-4.519 4.97,-4.394 4.373,-4.326 3.658,-3.898 3.299,-3.159 3.117,-2.795 3.016,-2.351 3.061,-1.896 3.107,-1.452 3.253,-1.067 3.351,-0.715 3.934,0.688 2.292,1.072 1.5,0.669 0.628,0.305 0.085,-0.122 0,0"
             style="fill:#333132;fill-opacity:1;fill-rule:evenodd;stroke:none"
             id="path180" /></g><g
           id="g182"
           transform="translate(48.6669,101.634)"><path
             d="m 0,0 c -0.071,-0.062 -0.666,0.206 -1.354,1.105 -0.324,0.444 -0.617,1.218 -0.35,2.031 0.122,0.397 0.418,0.834 0.902,1.048 C -0.328,4.4 0.188,4.348 0.591,4.27 1.43,4.076 1.956,3.981 2.46,4.265 2.955,4.52 3.245,4.962 3.33,5.384 3.506,6.269 3.07,6.822 3.185,6.896 3.225,6.995 3.986,6.548 3.967,5.308 3.953,4.711 3.587,3.965 2.877,3.544 2.528,3.332 2.093,3.193 1.633,3.2 1.183,3.205 0.785,3.316 0.424,3.382 -1.033,3.838 -1.273,2.177 -0.801,1.429 -0.361,0.597 0.113,0.095 0,0"
             style="fill:#333132;fill-opacity:1;fill-rule:evenodd;stroke:none"
             id="path184" /></g><g
           id="g186"
           transform="translate(59.9288,84.3142)"><path
             d="m 0,0 c 0.051,-0.08 -0.31,-0.621 -1.313,-1.154 -0.494,-0.248 -1.309,-0.409 -2.073,-0.017 -0.375,0.184 -0.76,0.545 -0.896,1.055 -0.138,0.499 -0.004,0.999 0.139,1.38 0.326,0.795 0.504,1.294 0.304,1.834 C -4.014,3.625 -4.405,3.981 -4.811,4.132 -5.659,4.446 -6.278,4.106 -6.334,4.23 -6.426,4.286 -5.859,4.961 -4.631,4.744 -4.042,4.635 -3.36,4.156 -3.056,3.391 -2.903,3.015 -2.833,2.565 -2.913,2.114 -2.992,1.675 -3.166,1.301 -3.29,0.957 -3.975,-0.397 -2.365,-0.904 -1.545,-0.557 -0.651,-0.258 -0.077,0.127 0,0"
             style="fill:#333132;fill-opacity:1;fill-rule:evenodd;stroke:none"
             id="path188" /></g><g
           id="g190"
           transform="translate(73.1873,111.631)"><path
             d="m 0,0 c 0.051,-0.08 -0.311,-0.623 -1.314,-1.153 -0.493,-0.247 -1.308,-0.41 -2.072,-0.018 -0.375,0.184 -0.76,0.545 -0.897,1.053 -0.137,0.501 -0.003,1.001 0.14,1.383 0.326,0.792 0.504,1.292 0.304,1.833 -0.175,0.527 -0.566,0.883 -0.972,1.034 -0.848,0.314 -1.467,-0.025 -1.523,0.099 -0.092,0.055 0.475,0.73 1.703,0.513 C -4.042,4.635 -3.36,4.156 -3.056,3.391 -2.901,3.015 -2.833,2.565 -2.913,2.114 -2.992,1.676 -3.166,1.301 -3.29,0.958 -3.976,-0.399 -2.365,-0.902 -1.546,-0.557 -0.651,-0.258 -0.077,0.127 0,0"
             style="fill:#333132;fill-opacity:1;fill-rule:evenodd;stroke:none"
             id="path192" /></g><g
           id="g194"
           transform="translate(82.2331,115.787)"><path
             d="m 0,0 c 0.058,0.075 0.693,-0.08 1.535,-0.84 0.4,-0.378 0.83,-1.085 0.717,-1.934 C 2.205,-3.185 1.994,-3.669 1.558,-3.967 1.13,-4.265 0.614,-4.309 0.202,-4.305 c -0.86,0.038 -1.393,0.036 -1.837,-0.335 -0.439,-0.342 -0.643,-0.827 -0.65,-1.259 -0.009,-0.9 0.521,-1.365 0.422,-1.459 -0.021,-0.106 -0.851,0.196 -1.062,1.419 -0.095,0.59 0.127,1.389 0.748,1.932 0.303,0.273 0.706,0.488 1.16,0.566 0.443,0.074 0.855,0.038 1.223,0.04 C 1.72,-3.585 1.654,-1.91 1.05,-1.259 0.464,-0.52 -0.094,-0.115 0,0"
             style="fill:#333132;fill-opacity:1;fill-rule:evenodd;stroke:none"
             id="path196" /></g><g
           id="g198"
           transform="translate(45.6381,70.1892)"><path
             d="m 0,0 c 0.051,-0.08 -0.311,-0.621 -1.314,-1.154 -0.493,-0.246 -1.308,-0.409 -2.072,-0.017 -0.375,0.186 -0.76,0.545 -0.897,1.055 -0.137,0.499 -0.003,0.999 0.138,1.38 0.328,0.795 0.506,1.294 0.306,1.834 C -4.014,3.625 -4.405,3.981 -4.811,4.132 -5.661,4.446 -6.28,4.106 -6.334,4.23 -6.426,4.286 -5.861,4.961 -4.631,4.744 -4.042,4.635 -3.36,4.156 -3.056,3.391 -2.903,3.015 -2.835,2.565 -2.913,2.114 -2.992,1.675 -3.166,1.301 -3.29,0.959 -3.975,-0.397 -2.365,-0.902 -1.547,-0.557 -0.651,-0.259 -0.077,0.127 0,0"
             style="fill:#333132;fill-opacity:1;fill-rule:evenodd;stroke:none"
             id="path200" /></g><g
           id="g202"
           transform="translate(65.2618,96.4761)"><path
             d="M 0,0 C -0.078,-0.054 -0.638,0.283 -1.214,1.257 -1.484,1.734 -1.682,2.539 -1.32,3.315 -1.151,3.695 -0.804,4.094 -0.3,4.25 0.197,4.407 0.705,4.296 1.096,4.172 1.905,3.878 2.414,3.724 2.95,3.946 3.471,4.142 3.813,4.546 3.948,4.954 4.227,5.812 3.859,6.413 3.983,6.472 4.035,6.567 4.736,6.034 4.57,4.805 4.485,4.213 4.033,3.514 3.278,3.179 2.906,3.011 2.458,2.924 2.001,2.985 1.556,3.044 1.172,3.2 0.823,3.309 -0.569,3.932 -1.006,2.312 -0.624,1.513 -0.288,0.635 0.124,0.081 0,0"
             style="fill:#333132;fill-opacity:1;fill-rule:evenodd;stroke:none"
             id="path204" /></g><g
           id="g206"
           transform="translate(68.7838,82.3528)"><path
             d="m 0,0 c -0.077,-0.054 -0.638,0.283 -1.214,1.257 -0.269,0.477 -0.468,1.282 -0.105,2.058 0.168,0.379 0.515,0.777 1.021,0.933 C 0.199,4.407 0.705,4.296 1.095,4.17 1.905,3.878 2.416,3.722 2.95,3.946 3.471,4.142 3.813,4.544 3.948,4.954 4.227,5.812 3.86,6.411 3.982,6.471 4.035,6.565 4.736,6.034 4.572,4.805 4.487,4.213 4.033,3.514 3.278,3.179 2.908,3.009 2.458,2.924 2.001,2.985 1.556,3.044 1.174,3.2 0.823,3.308 -0.569,3.932 -1.007,2.312 -0.624,1.512 -0.288,0.635 0.126,0.081 0,0"
             style="fill:#333132;fill-opacity:1;fill-rule:evenodd;stroke:none"
             id="path208" /></g><g
           id="g210"
           transform="translate(40.3819,88.3778)"><path
             d="M 0,0 C -0.094,0.012 -0.281,0.635 -0.049,1.742 0.075,2.276 0.471,3.003 1.263,3.336 1.645,3.505 2.17,3.57 2.65,3.346 3.126,3.131 3.426,2.709 3.63,2.355 4.033,1.599 4.305,1.143 4.851,0.951 5.371,0.746 5.894,0.819 6.271,1.032 7.058,1.48 7.192,2.168 7.325,2.132 7.426,2.166 7.585,1.301 6.632,0.501 6.17,0.121 5.362,-0.094 4.577,0.165 4.187,0.286 3.796,0.522 3.499,0.872 3.21,1.212 3.032,1.585 2.845,1.901 2.236,3.29 0.818,2.383 0.56,1.539 0.216,0.663 0.147,-0.024 0,0"
             style="fill:#333132;fill-opacity:1;fill-rule:evenodd;stroke:none"
             id="path212" /></g><g
           id="g214"
           transform="translate(66.0318,70.9413)"><path
             d="M 0,0 C -0.094,0.012 -0.283,0.635 -0.049,1.741 0.073,2.276 0.471,3.002 1.263,3.335 1.643,3.505 2.17,3.57 2.65,3.346 3.126,3.131 3.424,2.709 3.63,2.355 4.033,1.599 4.305,1.143 4.851,0.951 5.369,0.746 5.894,0.819 6.271,1.032 7.058,1.48 7.192,2.168 7.323,2.132 7.424,2.166 7.585,1.301 6.631,0.501 6.168,0.121 5.361,-0.094 4.577,0.165 4.187,0.286 3.796,0.522 3.499,0.872 3.21,1.212 3.032,1.585 2.845,1.901 2.236,3.29 0.816,2.383 0.56,1.537 0.216,0.663 0.147,-0.024 0,0"
             style="fill:#333132;fill-opacity:1;fill-rule:evenodd;stroke:none"
             id="path216" /></g><g
           id="g218"
           transform="translate(65.2881,123.764)"><path
             d="M 0,0 C -0.094,0.012 -0.283,0.637 -0.049,1.742 0.073,2.276 0.471,3.004 1.263,3.336 1.643,3.506 2.17,3.57 2.65,3.346 3.126,3.133 3.424,2.71 3.63,2.358 4.033,1.6 4.305,1.143 4.851,0.951 5.369,0.748 5.894,0.819 6.271,1.032 7.058,1.48 7.192,2.168 7.323,2.132 7.424,2.168 7.585,1.303 6.631,0.503 6.168,0.122 5.361,-0.092 4.577,0.165 4.187,0.288 3.796,0.524 3.499,0.873 3.21,1.214 3.032,1.587 2.845,1.901 2.236,3.292 0.816,2.385 0.56,1.539 0.216,0.663 0.147,-0.022 0,0"
             style="fill:#333132;fill-opacity:1;fill-rule:evenodd;stroke:none"
             id="path220" /></g><g
           id="g222"
           transform="translate(56.9085,63.9286)"><path
             d="m 0,0 c -0.049,-0.081 -0.698,-0.005 -1.629,0.643 -0.445,0.325 -0.96,0.974 -0.954,1.829 -0.006,0.414 0.143,0.921 0.539,1.271 0.385,0.349 0.893,0.456 1.301,0.505 0.858,0.067 1.387,0.137 1.781,0.56 0.392,0.394 0.534,0.9 0.487,1.329 C 1.42,7.032 0.836,7.427 0.923,7.533 0.93,7.639 1.792,7.445 2.154,6.256 2.324,5.684 2.203,4.864 1.656,4.246 1.389,3.939 1.017,3.674 0.576,3.542 0.145,3.412 -0.269,3.396 -0.631,3.351 -2.158,3.344 -1.88,1.689 -1.2,1.12 -0.527,0.46 0.078,0.127 0,0"
             style="fill:#333132;fill-opacity:1;fill-rule:evenodd;stroke:none"
             id="path224" /></g><g
           id="g226"
           transform="translate(26.4863,115.787)"><path
             d="m 0,0 c 0.082,0.047 0.607,-0.343 1.085,-1.369 0.222,-0.503 0.338,-1.32 -0.098,-2.058 -0.204,-0.361 -0.588,-0.725 -1.106,-0.831 -0.511,-0.11 -1.004,0.052 -1.381,0.213 -0.778,0.37 -1.27,0.574 -1.823,0.404 -0.539,-0.144 -0.918,-0.513 -1.092,-0.907 -0.363,-0.826 -0.056,-1.459 -0.185,-1.507 -0.059,-0.089 -0.707,0.511 -0.42,1.719 0.143,0.579 0.661,1.229 1.446,1.49 0.385,0.131 0.84,0.175 1.289,0.069 0.436,-0.101 0.802,-0.295 1.141,-0.437 1.324,-0.755 1.918,0.815 1.617,1.648 C 0.223,-0.659 -0.133,-0.069 0,0"
             style="fill:#333132;fill-opacity:1;fill-rule:evenodd;stroke:none"
             id="path228" /></g><g
           id="g230"
           transform="translate(55.8506,121.013)"><path
             d="M 0,0 C 0.082,0.047 0.607,-0.343 1.085,-1.368 1.307,-1.871 1.423,-2.69 0.987,-3.427 0.783,-3.788 0.399,-4.152 -0.119,-4.258 -0.63,-4.367 -1.123,-4.206 -1.5,-4.045 c -0.778,0.37 -1.27,0.575 -1.823,0.405 -0.539,-0.144 -0.918,-0.514 -1.092,-0.908 -0.363,-0.825 -0.056,-1.458 -0.185,-1.507 -0.059,-0.088 -0.707,0.51 -0.42,1.719 0.143,0.579 0.661,1.23 1.446,1.488 0.385,0.134 0.841,0.177 1.289,0.071 0.436,-0.1 0.802,-0.294 1.141,-0.437 1.324,-0.754 1.919,0.816 1.617,1.648 C 0.223,-0.659 -0.133,-0.069 0,0"
             style="fill:#333132;fill-opacity:1;fill-rule:evenodd;stroke:none"
             id="path232" /></g><g
           id="g234"
           transform="translate(37.7482,90.2868)"><path
             d="m 0,0 c -0.063,0.007 -0.052,0.643 0.019,1.787 0.072,1.144 0.204,2.797 0.387,4.837 0.365,4.078 0.941,9.711 1.616,15.914 0.153,1.54 0.232,3.039 0.019,4.437 -0.197,1.4 -0.743,2.657 -1.537,3.679 -1.601,2.062 -3.874,3.134 -5.807,3.594 -1.959,0.466 -3.628,0.444 -4.766,0.413 -1.142,-0.04 -1.777,-0.111 -1.788,-0.042 -0.01,0.054 0.606,0.243 1.759,0.392 1.149,0.14 2.859,0.267 4.936,-0.141 2.047,-0.402 4.527,-1.469 6.326,-3.706 C 2.058,30.061 2.697,28.631 2.922,27.11 3.164,25.589 3.081,24.014 2.925,22.45 2.249,16.228 1.573,10.619 1.045,6.555 0.78,4.524 0.549,2.881 0.37,1.75 0.192,0.616 0.063,-0.007 0,0"
             style="fill:#333132;fill-opacity:1;fill-rule:evenodd;stroke:none"
             id="path236" /></g><g
           id="g238"
           transform="translate(38.9127,91.7046)"><path
             d="m 0,0 c 0.026,-0.248 -5.935,-1.079 -13.315,-1.854 -7.381,-0.779 -13.385,-1.207 -13.411,-0.958 -0.026,0.247 5.934,1.079 13.317,1.855 C -6.032,-0.18 -0.026,0.25 0,0"
             style="fill:#333132;fill-opacity:1;fill-rule:evenodd;stroke:none"
             id="path240" /></g><g
           id="g242"
           transform="translate(75.2452,94.6384)"><path
             d="m 0,0 c -0.298,0.028 1.144,5.259 -0.502,11.492 -1.544,6.259 -5.323,10.171 -5.071,10.337 0.069,0.07 1.107,-0.784 2.395,-2.518 1.287,-1.724 2.733,-4.394 3.556,-7.597 C 1.191,8.51 1.2,5.478 0.897,3.351 0.597,1.216 0.096,-0.028 0,0"
             style="fill:#333132;fill-opacity:1;fill-rule:evenodd;stroke:none"
             id="path244" /></g><g
           id="g246"
           transform="translate(145.0623,94.2165)"><path
             d="m 0,0 c 0.225,1.488 0.181,2.904 1.019,4.215 1.666,2.616 4.04,1.966 6.339,0.815 2.334,-1.167 4.53,-1.87 7.068,-0.777 3.998,1.721 5.769,7.605 2.048,10.448 -1.207,0.921 -2.449,-0.597 -2.269,-1.735 C 14.458,11.363 15.243,9.594 13.861,8.217 12.014,6.373 9.845,7.917 8,8.746 6.015,9.639 3.908,9.837 1.856,9.015 -1.675,7.599 -4.241,2.841 -1.436,-0.376 -1.04,-0.831 -0.094,-0.624 0,0"
             style="fill:#333132;fill-opacity:1;fill-rule:evenodd;stroke:none"
             id="path248" /></g><g
           id="g250"
           transform="translate(154.4173,162.56)"><path
             d="m 0,0 c 0.375,-2.412 2.892,-7.503 5.547,-8.206 1.408,-0.373 2.454,0.55 3.548,1.3 1.992,1.365 3.96,2.761 5.931,4.157 0.712,0.503 1.134,1.473 0.604,2.285 C 13.885,2.205 12.143,4.874 10.398,7.542 9.936,8.248 8.87,8.683 8.101,8.14 5.922,6.609 3.59,5.188 1.601,3.416 0.242,2.201 1.978,0.134 3.504,0.963 5.718,2.167 7.736,3.808 9.796,5.256 9.029,5.455 8.263,5.655 7.497,5.854 9.24,3.187 10.984,0.517 12.727,-2.15 12.929,-1.389 13.13,-0.626 13.331,0.136 12.148,-0.702 10.962,-1.535 9.782,-2.376 9.191,-2.797 6.772,-4.993 6.13,-4.849 5.367,-4.679 4.138,-2.496 3.656,-1.925 2.819,-0.936 2.035,-0.001 0.954,0.731 0.434,1.084 -0.077,0.502 0,0"
             style="fill:#333132;fill-opacity:1;fill-rule:evenodd;stroke:none"
             id="path252" /></g><g
           id="g254"
           transform="translate(129.7193,137.678)"><path
             d="m 0,0 c -2.74,-2.618 -3.783,-6.692 -1.169,-9.835 2.46,-2.961 7.224,-3.589 10.298,-1.23 C 16.551,-5.369 8.815,5.141 0.806,2.966 -0.677,2.563 -0.307,0.461 1.158,0.378 3.499,0.246 6.006,0.156 7.876,-1.475 9.886,-3.228 9.929,-6.193 8.283,-8.208 3.916,-13.545 -3.667,-5.686 0.919,-0.915 1.497,-0.313 0.605,0.577 0,0"
             style="fill:#333132;fill-opacity:1;fill-rule:evenodd;stroke:none"
             id="path256" /></g><g
           id="g258"
           transform="translate(192.7963,113.466)"><path
             d="m 0,0 c -0.945,-4.881 -1.751,-9.772 -2.503,-14.686 -0.18,-1.181 0.639,-1.979 1.818,-1.807 4.642,0.671 9.27,1.29 13.85,2.296 0.881,0.195 1.239,1.273 0.82,2.007 C 11.39,-7.647 8.084,-1.318 3.2,1.161 1.963,1.789 0.211,0.43 1.136,-0.891 2.589,-2.971 4.74,-4.53 6.432,-6.435 c 1.948,-2.194 3.778,-4.555 5.183,-7.134 0.394,0.685 0.79,1.371 1.184,2.054 -4.797,-0.47 -9.519,-1.329 -14.269,-2.146 0.624,-0.472 1.247,-0.943 1.87,-1.417 0.572,4.94 1.083,9.871 1.455,14.829 C 1.935,0.796 0.203,1.043 0,0"
             style="fill:#333132;fill-opacity:1;fill-rule:evenodd;stroke:none"
             id="path260" /></g><g
           id="g262"
           transform="translate(173.6063,137.349)"><path
             d="M 0,0 C 0.067,1.528 -2.435,1.91 -2.723,0.368 -3.628,-4.48 -3.954,-9.656 -3.991,-14.577 -3.998,-15.602 -2.393,-15.86 -2.159,-14.823 -1.085,-10.041 -0.214,-4.896 0,0"
             style="fill:#333132;fill-opacity:1;fill-rule:evenodd;stroke:none"
             id="path264" /></g><g
           id="g266"
           transform="translate(239.2963,122.285)"><path
             d="M 0,0 C 1.814,0.064 1.746,2.574 0,2.754 -4.821,3.254 -9.915,3.146 -14.747,2.799 -15.717,2.73 -16.102,1.132 -14.995,0.978 -10.102,0.296 -4.94,-0.179 0,0"
             style="fill:#333132;fill-opacity:1;fill-rule:evenodd;stroke:none"
             id="path268" /></g><g
           id="g270"
           transform="translate(184.4203,185.256)"><path
             d="m 0,0 c 4.328,-2.32 9.071,-4.582 13.76,-6.082 1.478,-0.474 2.481,1.814 1.068,2.518 C 10.418,-1.365 5.45,0.332 0.719,1.695 -0.286,1.983 -0.94,0.505 0,0"
             style="fill:#333132;fill-opacity:1;fill-rule:evenodd;stroke:none"
             id="path272" /></g><g
           id="g274"
           transform="translate(198.1463,145.794)"><path
             d="m 0,0 c -1.096,0.966 -2.894,1.153 -3.96,0 -1.078,-1.167 -1.038,-2.77 0,-3.939 0.073,-0.082 0.146,-0.165 0.221,-0.248 0.981,-1.103 3.002,-1.07 3.99,0 0.982,1.063 1.179,2.928 0,3.967 C 0.167,-0.148 0.083,-0.075 0,0"
             style="fill:#333132;fill-opacity:1;fill-rule:evenodd;stroke:none"
             id="path276" /></g><g
           id="g278"
           transform="translate(217.1483,160.858)"><path
             d="M 0,0 C -2.814,-2.523 -3.885,-6.452 -1.2,-9.485 1.328,-12.338 6.218,-12.944 9.374,-10.669 16.997,-5.176 9.052,4.958 0.828,2.861 -0.695,2.473 -0.315,0.445 1.19,0.365 3.594,0.238 6.168,0.151 8.09,-1.423 10.152,-3.112 10.198,-5.971 8.506,-7.914 4.022,-13.061 -3.763,-5.482 0.944,-0.881 1.539,-0.301 0.622,0.557 0,0"
             style="fill:#829fd8;fill-opacity:1;fill-rule:evenodd;stroke:none"
             id="path280" /></g><g
           id="g282"
           transform="translate(38.2009,185.641)"><path
             d="m 0,0 c -2.753,1.231 -6.14,0.947 -8.643,-0.725 -2.504,-1.671 -4.039,-4.675 -3.917,-7.664 0.096,-2.336 1.037,-4.995 -0.464,-6.801 -1.16,-1.394 -3.23,-1.525 -4.892,-2.27 -3.16,-1.415 -4.734,-5.553 -3.296,-8.679 0.777,-1.692 2.319,-3.25 2.024,-5.086 -0.19,-1.188 -1.143,-2.128 -2.197,-2.727 -1.056,-0.597 -2.237,-0.938 -3.329,-1.466 -3.98,-1.929 -6.396,-6.409 -6.283,-10.794 0.115,-4.385 2.553,-8.546 6.048,-11.243 3.496,-2.696 7.953,-4.005 12.38,-4.169 4.438,-0.164 9.079,0.866 12.464,3.709 2.543,2.135 4.201,5.127 5.424,8.196 2.328,5.836 3.27,12.206 2.734,18.456 -0.559,6.487 -2.676,12.773 -3.14,19.266 -0.155,2.176 -0.124,4.38 -0.613,6.507 -0.49,2.127 -1.589,4.23 -3.472,5.36"
             style="fill:#51a8cd;fill-opacity:1;fill-rule:evenodd;stroke:none"
             id="path284" /></g><g
           id="g286"
           transform="translate(38.3401,185.796)"><path
             d="m 0,0 c 2.486,5.299 7.429,9.317 13.03,10.591 3.439,0.782 7.214,0.517 10.236,-1.339 C 26.29,7.395 28.379,3.774 27.919,0.191 27.634,-2.024 26.462,-4 25.718,-6.1 c -0.744,-2.101 -0.988,-4.662 0.395,-6.389 1.241,-1.55 3.367,-1.932 5.061,-2.934 2.42,-1.434 3.94,-4.327 3.78,-7.187 -0.159,-2.861 -1.994,-5.556 -4.558,-6.696 2.546,-0.303 4.94,-1.763 6.412,-3.912 1.474,-2.151 2.003,-4.953 1.419,-7.513 -0.838,-3.667 -3.745,-6.473 -6.872,-8.455 -4.343,-2.753 -9.381,-4.349 -14.483,-4.585 -5.416,-0.252 -11.414,1.391 -14.36,6.058 -1.933,3.063 -2.228,6.885 -2.445,10.528 -0.654,10.995 -1.103,22.003 -1.551,33.009 -0.073,1.77 -0.143,3.569 0.264,5.291"
             style="fill:#51a8cd;fill-opacity:1;fill-rule:evenodd;stroke:none"
             id="path288" /></g><g
           id="g290"
           transform="translate(55.2003,135.44)"><path
             d="M 0,0 49.746,-17.988 44.996,1.388 57.933,4.56 c 0,0 13.916,-37.878 4.252,-38.891 -16.919,-1.776 -42.518,4.686 -42.518,4.686 z"
             style="fill:#f49699;fill-opacity:1;fill-rule:evenodd;stroke:none"
             id="path292" /></g><g
           id="g294"
           transform="translate(52.0003,52.0714)"><path
             d="M 0,0 C 0,0 59.198,64.869 99.162,50.707 139.126,36.543 156,-29.526 156,-29.526 l -31.832,0.519 c 0,0 -25.138,49.9 -37.404,47.968 C 74.496,17.025 36.61,-30.471 36.61,-30.471 Z"
             style="fill:#6ca3c1;fill-opacity:1;fill-rule:evenodd;stroke:none"
             id="path296" /></g><g
           id="g298"
           transform="translate(70.3237,90.8993)"><path
             d="m 0,0 2.477,-37.769 c -12.862,-15.63 -57.638,4.578 -57.638,4.578 l -0.523,15.791 -1.039,37.612 c 1.031,14.978 15.106,22.328 15.106,22.328 5.818,2.868 14.691,4.495 22.685,4.103 C -10.586,46.237 -8.524,42.286 -5.086,34.76 -2.309,28.679 5.229,18.771 0,0"
             style="fill:#f2bb6a;fill-opacity:1;fill-rule:evenodd;stroke:none"
             id="path300" /></g><g
           id="g302"
           transform="translate(24.2704,51.1088)"><path
             d="m 0,0 c 0,0 -6.817,-28.658 13.962,-33.176 20.779,-4.516 97.203,6.05 117.109,4.243 19.905,-1.805 76.514,-5.217 76.514,-5.217 l 4.145,34.033 c 0,0 -88.094,4.362 -98.051,1.804 C 103.723,-0.866 0,0 0,0"
             style="fill:#6ca3c1;fill-opacity:1;fill-rule:evenodd;stroke:none"
             id="path304" /></g><g
           id="g306"
           transform="translate(33.4035,99.2)"><path
             d="m 0,0 c 0,0 -6.27,-36.957 2.572,-36.046 29.085,2.991 46.404,3.394 46.404,3.394 l 4.821,-10.011 c 0.112,-1.705 -55.08,-17.507 -63.949,-12.283 -6.262,3.688 -16.237,13.625 -11.709,43.319 l 1.07,9.954 z"
             style="fill:#f49699;fill-opacity:1;fill-rule:evenodd;stroke:none"
             id="path308" /></g><g
           id="g310"
           transform="translate(60.0597,46.4)"><path
             d="M 0,0 -0.059,2.519 36.347,7.759 46.011,42.203 86.341,43.2 75.459,5.918 Z"
             style="fill:#70d0f5;fill-opacity:1;fill-rule:evenodd;stroke:none"
             id="path312" /></g><g
           id="g314"
           transform="translate(125.5993,70.4786)"><path
             d="m 0,0 c 0.043,-1.766 -1.355,-3.235 -3.121,-3.278 -1.767,-0.041 -3.234,1.357 -3.277,3.123 -0.043,1.764 1.355,3.232 3.121,3.276 C -1.51,3.162 -0.043,1.766 0,0"
             style="fill:#ffffff;fill-opacity:1;fill-rule:evenodd;stroke:none"
             id="path316" /></g><g
           id="g318"
           transform="translate(126.3993,71.7075)"><path
             d="m 0,0 c 0.058,-2.429 -1.863,-4.447 -4.292,-4.506 -2.429,-0.059 -4.447,1.863 -4.506,4.293 -0.058,2.429 1.863,4.447 4.292,4.504 C -2.077,4.35 -0.059,2.428 0,0"
             style="fill:#ffffff;fill-opacity:1;fill-rule:evenodd;stroke:none"
             id="path320" /></g><g
           id="g322"
           transform="translate(17.8379,123.669)"><path
             d="m 0,0 c 0,0 -6.733,-6.452 -8.238,-30.869 l 26.056,2.877 c 0,0 4.342,41.587 -17.818,27.992"
             style="fill:#f2bb6a;fill-opacity:1;fill-rule:evenodd;stroke:none"
             id="path324" /></g><g
           id="g326"
           transform="translate(209.6003,196.342)"><path
             d="m 0,0 c 0,0 9.275,-21.423 11.86,-20.299 2.588,1.121 26.54,16.407 26.54,16.407 0,0 -9.817,19.179 -11.86,20.299 C 24.497,17.525 0,0 0,0"
             style="fill:#70d0f5;fill-opacity:1;fill-rule:evenodd;stroke:none"
             id="path328" /></g><g
           id="g330"
           transform="translate(235.9873,211.199)"><path
             d="m 0,0 c 0.116,-0.041 -0.562,-2.047 -1.754,-5.253 -1.19,-3.208 -2.895,-7.618 -4.827,-12.47 -0.049,-0.119 -0.097,-0.239 -0.14,-0.35 l -0.131,-0.326 -0.366,0.056 c -5.334,0.82 -10.135,1.606 -13.599,2.215 -3.464,0.609 -5.591,1.042 -5.57,1.156 0.019,0.115 2.181,-0.109 5.671,-0.566 3.49,-0.459 8.308,-1.148 13.644,-1.964 l -0.494,-0.271 c 0.043,0.111 0.09,0.23 0.139,0.35 1.934,4.852 3.732,9.229 5.077,12.381 C -1.006,-1.888 -0.116,0.041 0,0"
             style="fill:#21326b;fill-opacity:1;fill-rule:evenodd;stroke:none"
             id="path332" /></g><g
           id="g334"
           transform="translate(218.4543,178.401)"><path
             d="m 0,0 c -0.279,0.051 0.546,3.327 1.845,7.312 1.3,3.987 2.575,7.159 2.849,7.086 C 4.967,14.324 4.142,11.049 2.849,7.083 1.557,3.12 0.28,-0.052 0,0"
             style="fill:#21326b;fill-opacity:1;fill-rule:evenodd;stroke:none"
             id="path336" /></g><g
           id="g338"
           transform="translate(246.4003,196.853)"><path
             d="m 0,0 c -0.04,-0.158 -3.475,0.048 -7.673,0.462 -4.197,0.411 -7.566,0.874 -7.527,1.032 0.042,0.158 3.475,-0.048 7.674,-0.461 C -3.33,0.621 0.039,0.158 0,0"
             style="fill:#21326b;fill-opacity:1;fill-rule:evenodd;stroke:none"
             id="path340" /></g><g
           id="g342"
           transform="translate(31.6214,174.073)"><path
             d="m 0,0 0.583,-7.899 c 0,0 -6.533,-0.906 -4.67,-7.032 1.862,-6.127 6.331,-3.445 6.331,-3.445 0,0 1.117,-15.699 16.761,-10.722 12.449,3.961 11.687,20.535 10.107,34.664 -0.612,5.474 -5.649,9.237 -10.91,8.184 L 8.798,11.866 C 3.363,10.779 -0.419,5.678 0,0"
             style="fill:#f49699;fill-opacity:1;fill-rule:evenodd;stroke:none"
             id="path344" /></g><g
           id="g346"
           transform="translate(32.0003,160.8)"><path
             d="m 0,0 4.274,-23.506 c 0.962,-5.296 6.024,-8.684 11.106,-7.434 4.708,1.159 7.724,5.904 6.878,10.82 l -2.32,13.473 z"
             style="fill:#f49699;fill-opacity:1;fill-rule:evenodd;stroke:none"
             id="path348" /></g><g
           id="g350"
           transform="translate(49.6171,159.831)"><path
             d="M 0,0 C 0.045,0.043 0.141,-0.201 0.356,-0.234 0.565,-0.263 0.884,0.027 0.962,0.642 1.069,1.25 1.01,2.051 0.945,2.978 0.89,3.975 0.835,4.961 0.778,5.992 0.578,10.271 0.565,13.753 0.751,13.769 0.937,13.785 1.25,10.328 1.451,6.049 1.49,5.014 1.527,4.028 1.565,3.03 1.592,2.115 1.618,1.211 1.419,0.462 1.263,-0.32 0.662,-0.805 0.287,-0.573 -0.072,-0.329 -0.025,0.005 0,0"
             style="fill:#51a8cd;fill-opacity:1;fill-rule:evenodd;stroke:none"
             id="path352" /></g><g
           id="g354"
           transform="translate(54.3948,147.976)"><path
             d="m 0,0 c 0.072,-0.109 -0.563,-1.011 -1.874,-1.984 -1.298,-0.97 -3.325,-1.927 -5.659,-1.988 -2.333,-0.066 -4.392,0.778 -5.719,1.678 -1.342,0.901 -2.005,1.767 -1.938,1.88 0.118,0.328 3.228,-2.52 7.638,-2.38 4.41,0.1 7.426,3.115 7.552,2.794"
             style="fill:#51a8cd;fill-opacity:1;fill-rule:evenodd;stroke:none"
             id="path356" /></g><g
           id="g358"
           transform="translate(51.1813,156.21)"><path
             d="m 0,0 c 0.086,-0.068 -0.112,-0.608 -0.793,-1.129 -0.658,-0.515 -1.868,-0.935 -3.139,-0.499 -1.267,0.451 -2.026,1.562 -2.284,2.398 -0.274,0.856 -0.147,1.422 -0.041,1.42 0.134,0.013 0.238,-0.486 0.604,-1.131 0.353,-0.639 1.033,-1.435 1.989,-1.775 0.961,-0.332 1.938,-0.118 2.568,0.178 C -0.455,-0.245 -0.101,0.094 0,0"
             style="fill:#51a8cd;fill-opacity:1;fill-rule:evenodd;stroke:none"
             id="path360" /></g><g
           id="g362"
           transform="translate(31.9795,158.609)"><path
             d="m 0,0 c 0.001,-0.123 -0.288,-0.339 -0.8,-0.105 -0.246,0.119 -0.57,0.46 -0.709,1.051 -0.07,0.288 -0.101,0.641 -0.031,1.01 0.056,0.36 0.278,0.749 0.523,0.874 0.335,0.212 0.803,0.087 1.02,-0.485 L -0.571,1.881 C -0.946,3.357 -1.127,4.488 -0.987,4.584 -0.848,4.681 -0.431,3.711 0.021,2.288 L -0.553,1.824 C -0.566,1.855 -0.66,1.919 -0.777,1.849 -0.903,1.79 -0.96,1.556 -0.917,1.248 -0.876,0.954 -0.75,0.734 -0.597,0.566 -0.287,0.248 0.008,0.155 0,0"
             style="fill:#51a8cd;fill-opacity:1;fill-rule:evenodd;stroke:none"
             id="path364" /></g><g
           id="g366"
           transform="translate(55.4589,170.403)"><path
             d="M 0,0 C -0.224,-0.036 -0.522,0.293 -0.666,0.733 -0.808,1.174 -0.741,1.559 -0.517,1.594 -0.293,1.63 0.005,1.301 0.147,0.861 0.291,0.42 0.224,0.035 0,0"
             style="fill:#51a8cd;fill-opacity:1;fill-rule:evenodd;stroke:none"
             id="path368" /></g><g
           id="g370"
           transform="translate(41.1184,169.604)"><path
             d="M 0,0 C -0.222,-0.043 -0.544,0.279 -0.72,0.718 -0.896,1.159 -0.858,1.549 -0.635,1.592 -0.414,1.635 -0.093,1.313 0.083,0.873 0.259,0.434 0.222,0.043 0,0"
             style="fill:#51a8cd;fill-opacity:1;fill-rule:evenodd;stroke:none"
             id="path372" /></g><g
           id="g374"
           transform="translate(43.1932,172.972)"><path
             d="M 0,0 C -0.076,-0.225 -0.783,-0.217 -1.566,-0.421 -2.356,-0.6 -2.968,-0.929 -3.152,-0.766 -3.344,-0.629 -2.854,0.13 -1.793,0.386 -0.736,0.647 0.093,0.208 0,0"
             style="fill:#51a8cd;fill-opacity:1;fill-rule:evenodd;stroke:none"
             id="path376" /></g><g
           id="g378"
           transform="translate(55.9912,176.661)"><path
             d="m 0,0 c -0.089,-0.217 -0.777,-0.11 -1.583,-0.193 -0.808,-0.064 -1.468,-0.296 -1.591,-0.098 -0.131,0.178 0.495,0.835 1.522,0.927 C -0.624,0.733 0.099,0.199 0,0"
             style="fill:#51a8cd;fill-opacity:1;fill-rule:evenodd;stroke:none"
             id="path380" /></g><g
           id="g382"
           transform="translate(31.3679,166.021)"><path
             d="m 0,0 c 4.34,4.362 5.615,11.63 6.792,17.759 4.02,-3.018 9.548,-3.759 14.182,-1.904 1.454,-1.762 3.163,-3.302 5.051,-4.549 0.538,-0.356 1.174,-0.701 1.786,-0.511 0.728,0.225 1.052,1.087 1.225,1.852 0.555,2.443 0.576,5.06 -0.251,7.422 -0.827,2.359 -2.562,4.435 -4.833,5.34 -2.426,0.969 -5.157,0.548 -7.677,-0.125 C 12.479,24.269 8.821,22.71 5.437,20.666 2.115,18.661 -1.073,16.006 -2.483,12.315 -3.891,8.623 -3.884,1.445 -0.489,-0.421"
             style="fill:#51a8cd;fill-opacity:1;fill-rule:evenodd;stroke:none"
             id="path384" /></g><g
           id="g386"
           transform="translate(40.8939,160.006)"><path
             d="m 0,0 c -1.914,-0.105 -3.388,1.12 -3.289,2.432 0.096,1.324 1.486,2.264 3.103,2.356 C 1.432,4.869 2.889,4.078 3.087,2.771 3.286,1.473 1.914,0.1 0,0"
             style="fill:#d5c6e5;fill-opacity:1;fill-rule:evenodd;stroke:none"
             id="path388" /></g><g
           id="g390"
           transform="translate(57.7182,160.806)"><path
             d="m 0,0 c -1.953,-0.105 -3.435,1.12 -3.311,2.432 0.123,1.322 1.5,2.267 3.073,2.357 C 1.338,4.866 2.8,4.074 3.052,2.771 3.305,1.479 1.952,0.103 0,0"
             style="fill:#d5c6e5;fill-opacity:1;fill-rule:evenodd;stroke:none"
             id="path392" /></g><g
           id="g394"
           transform="translate(32.1484,146.4)"><path
             d="M 0,0 C -0.234,0.005 -0.363,2.51 -0.51,5.586 -0.653,8.664 -0.76,11.168 -0.528,11.2 -0.304,11.233 0.178,8.749 0.322,5.633 0.47,2.517 0.226,-0.007 0,0"
             style="fill:#99ddf8;fill-opacity:1;fill-rule:evenodd;stroke:none"
             id="path396" /></g><g
           id="g398"
           transform="translate(58.7706,136.64)"><path
             d="m 0,0 c -4.129,1.68 27.63,-10.394 27.63,-10.394 l -3.222,-22.246 -12.08,4.058 z"
             style="fill:#f2bb6a;fill-opacity:1;fill-rule:evenodd;stroke:none"
             id="path400" /></g><g
           id="g402"
           transform="translate(38.2004,186.665)"><path
             d="M 0,0 C 0.927,1.727 1.232,3.943 0.82,5.95 0.48,7.604 -0.531,9.245 -1.912,9.331 -2.696,9.381 -3.456,8.91 -4.032,8.251 -5.457,6.624 -5.823,3.758 -4.874,1.67 c 0.949,-2.089 3.119,-3.199 4.988,-2.551"
             style="fill:#51a8cd;fill-opacity:1;fill-rule:evenodd;stroke:none"
             id="path404" /></g><g
           id="g406"
           transform="translate(234.7143,43.5979)"><path
             d="M 0,0 C 0,0 10.453,15.279 9.178,9.494 7.904,3.71 -2.714,-21.998 -2.714,-21.998 Z"
             style="fill:#51a8cd;fill-opacity:1;fill-rule:evenodd;stroke:none"
             id="path408" /></g><g
           id="g410"
           transform="translate(79.4811,67.0165)"><path
             d="M 0,0 C 0,0 14.314,4.588 13.823,3.079 13.331,1.571 10.896,1.515 8.461,-0.919 c 0,0 16.001,-0.177 15.231,-1.524 -0.769,-1.346 -11.185,-1.686 -11.248,-1.915 -0.062,-0.23 11.392,-0.516 11.135,-1.761 -0.258,-1.247 -10.903,-0.943 -10.903,-0.943 0,0 9.868,-1.073 9.666,-2.415 -0.203,-1.344 -9.299,-0.376 -9.299,-0.376 0,0 7.613,-0.889 7.415,-2.105 C 20.338,-12.7 -1.835,-12.867 -1.881,-13.412 -1.905,-13.698 0,0 0,0"
             style="fill:#f49699;fill-opacity:1;fill-rule:evenodd;stroke:none"
             id="path412" /></g><g
           id="g414"
           transform="translate(101.1794,136.8)"><path
             d="m 0,0 c 0,0 -8.991,11.662 -7.388,11.655 1.603,-0.005 2.439,-2.2 5.552,-3.703 0,0 -4.967,14.583 -3.431,14.277 1.539,-0.306 5.207,-9.666 5.448,-9.656 0.238,0.01 -3.166,10.497 -1.889,10.626 1.275,0.128 4.402,-9.627 4.402,-9.627 0,0 -2.142,9.274 -0.79,9.481 1.353,0.208 3.346,-8.335 3.346,-8.335 0,0 -1.594,7.174 -0.364,7.35 C 5.634,22.175 12.421,4.377 12.421,4.377 12.242,4.377 0,0 0,0"
             style="fill:#f49699;fill-opacity:1;fill-rule:evenodd;stroke:none"
             id="path416" /></g><g
           id="g418"
           transform="translate(22.0193,103.2)"><path
             d="M 0,0 C 0.083,0.009 0.366,-0.576 0.381,-1.743 0.378,-2.309 0.18,-3.13 -0.438,-3.642 -0.733,-3.898 -1.172,-4.08 -1.627,-3.964 c -0.45,0.109 -0.79,0.465 -1.034,0.775 -0.494,0.673 -0.816,1.07 -1.322,1.14 -0.486,0.089 -0.924,-0.1 -1.205,-0.401 -0.59,-0.627 -0.571,-1.351 -0.691,-1.344 -0.08,-0.057 -0.386,0.777 0.278,1.797 0.324,0.486 0.977,0.884 1.7,0.801 0.358,-0.035 0.741,-0.184 1.064,-0.47 0.314,-0.278 0.539,-0.612 0.76,-0.888 0.796,-1.263 1.837,-0.03 1.894,0.879 C -0.057,-0.716 -0.131,-0.011 0,0"
             style="fill:#f0eaee;fill-opacity:1;fill-rule:evenodd;stroke:none"
             id="path420" /></g><g
           id="g422"
           transform="translate(28.8065,110.309)"><path
             d="M 0,0 C -0.055,0.079 0.254,0.687 1.18,1.33 1.636,1.632 2.406,1.869 3.167,1.511 3.54,1.345 3.936,0.991 4.103,0.459 4.27,-0.063 4.178,-0.606 4.069,-1.025 3.81,-1.894 3.676,-2.44 3.908,-3.002 4.111,-3.548 4.512,-3.897 4.914,-4.025 5.75,-4.293 6.321,-3.884 6.383,-4.013 6.475,-4.063 5.98,-4.827 4.786,-4.693 4.212,-4.623 3.521,-4.165 3.176,-3.374 3.001,-2.985 2.904,-2.511 2.949,-2.025 2.993,-1.551 3.132,-1.14 3.226,-0.764 3.788,0.735 2.207,1.144 1.444,0.713 0.606,0.326 0.082,-0.13 0,0"
             style="fill:#f0eaee;fill-opacity:1;fill-rule:evenodd;stroke:none"
             id="path424" /></g><g
           id="g426"
           transform="translate(28.8065,127.108)"><path
             d="M 0,0 C -0.055,0.081 0.254,0.687 1.179,1.33 1.634,1.632 2.406,1.871 3.167,1.512 3.54,1.345 3.936,0.991 4.101,0.459 4.27,-0.063 4.178,-0.606 4.069,-1.025 3.81,-1.893 3.674,-2.44 3.908,-2.999 4.111,-3.548 4.512,-3.896 4.912,-4.024 5.75,-4.292 6.321,-3.883 6.383,-4.013 6.475,-4.063 5.98,-4.826 4.784,-4.692 4.21,-4.62 3.521,-4.163 3.176,-3.373 3.001,-2.984 2.904,-2.51 2.947,-2.025 2.991,-1.551 3.132,-1.139 3.226,-0.763 3.787,0.735 2.207,1.145 1.444,0.715 0.605,0.326 0.082,-0.13 0,0"
             style="fill:#f0eaee;fill-opacity:1;fill-rule:evenodd;stroke:none"
             id="path428" /></g><g
           id="g430"
           transform="translate(46.0042,104.808)"><path
             d="m 0,0 c -0.079,-0.058 -0.738,0.191 -1.5,1.022 -0.36,0.411 -0.684,1.126 -0.389,1.879 0.136,0.367 0.464,0.772 1,0.969 0.526,0.201 1.098,0.153 1.544,0.08 C 1.585,3.771 2.167,3.682 2.726,3.946 3.275,4.181 3.595,4.591 3.69,4.981 3.885,5.799 3.402,6.311 3.53,6.38 3.574,6.471 4.417,6.057 4.396,4.91 4.38,4.358 3.974,3.668 3.188,3.278 2.801,3.082 2.32,2.954 1.809,2.96 1.311,2.965 0.87,3.068 0.47,3.129 -1.144,3.551 -1.411,2.014 -0.887,1.322 -0.4,0.552 0.126,0.088 0,0"
             style="fill:#f0eaee;fill-opacity:1;fill-rule:evenodd;stroke:none"
             id="path432" /></g><g
           id="g434"
           transform="translate(57.5957,87.8536)"><path
             d="m 0,0 c 0.051,-0.083 -0.313,-0.642 -1.324,-1.192 -0.498,-0.256 -1.319,-0.423 -2.089,-0.018 -0.379,0.19 -0.767,0.563 -0.905,1.09 -0.138,0.516 -0.003,1.032 0.141,1.427 0.329,0.821 0.508,1.337 0.306,1.894 -0.176,0.545 -0.57,0.912 -0.979,1.069 -0.855,0.324 -1.479,-0.027 -1.536,0.102 -0.093,0.057 0.479,0.754 1.717,0.53 0.594,-0.113 1.282,-0.607 1.588,-1.398 0.155,-0.389 0.225,-0.853 0.144,-1.319 -0.079,-0.454 -0.255,-0.841 -0.38,-1.196 -0.691,-1.4 0.932,-1.923 1.759,-1.564 C -0.656,-0.267 -0.077,0.131 0,0"
             style="fill:#f0eaee;fill-opacity:1;fill-rule:evenodd;stroke:none"
             id="path436" /></g><g
           id="g438"
           transform="translate(71.1957,115.053)"><path
             d="m 0,0 c 0.051,-0.082 -0.313,-0.643 -1.324,-1.192 -0.498,-0.254 -1.319,-0.423 -2.089,-0.018 -0.379,0.19 -0.767,0.563 -0.905,1.088 -0.138,0.518 -0.003,1.035 0.141,1.429 0.329,0.819 0.508,1.335 0.306,1.895 C -4.047,3.747 -4.441,4.114 -4.85,4.27 -5.705,4.594 -6.329,4.245 -6.386,4.372 -6.479,4.43 -5.907,5.127 -4.669,4.903 -4.075,4.79 -3.387,4.295 -3.081,3.505 -2.925,3.116 -2.856,2.651 -2.937,2.185 -3.016,1.732 -3.192,1.345 -3.317,0.99 -4.008,-0.412 -2.385,-0.932 -1.558,-0.575 -0.656,-0.267 -0.077,0.131 0,0"
             style="fill:#f0eaee;fill-opacity:1;fill-rule:evenodd;stroke:none"
             id="path440" /></g><g
           id="g442"
           transform="translate(79.163,118.384)"><path
             d="M 0,0 C 0.062,0.072 0.743,-0.078 1.648,-0.818 2.077,-1.186 2.539,-1.875 2.417,-2.701 2.367,-3.101 2.14,-3.573 1.672,-3.863 1.213,-4.154 0.659,-4.196 0.217,-4.192 c -0.923,0.037 -1.496,0.035 -1.972,-0.326 -0.472,-0.333 -0.691,-0.806 -0.698,-1.227 -0.01,-0.876 0.56,-1.329 0.453,-1.42 -0.022,-0.103 -0.914,0.191 -1.14,1.382 -0.102,0.574 0.136,1.352 0.803,1.881 0.326,0.265 0.758,0.475 1.245,0.551 0.476,0.072 0.918,0.037 1.313,0.039 1.625,-0.179 1.554,1.452 0.906,2.085 C 0.498,-0.507 -0.101,-0.112 0,0"
             style="fill:#f0eaee;fill-opacity:1;fill-rule:evenodd;stroke:none"
             id="path444" /></g><g
           id="g446"
           transform="translate(42.3957,73.4532)"><path
             d="m 0,0 c 0.051,-0.082 -0.313,-0.642 -1.324,-1.192 -0.498,-0.255 -1.319,-0.423 -2.089,-0.018 -0.379,0.192 -0.767,0.563 -0.904,1.09 -0.139,0.516 -0.004,1.032 0.139,1.427 0.33,0.821 0.509,1.337 0.307,1.894 C -4.047,3.746 -4.441,4.114 -4.85,4.27 -5.707,4.594 -6.331,4.243 -6.386,4.372 -6.479,4.429 -5.909,5.127 -4.669,4.903 -4.075,4.79 -3.387,4.295 -3.081,3.504 -2.926,3.115 -2.858,2.651 -2.937,2.185 -3.016,1.732 -3.192,1.344 -3.317,0.991 -4.008,-0.41 -2.385,-0.932 -1.56,-0.575 -0.656,-0.267 -0.077,0.131 0,0"
             style="fill:#f0eaee;fill-opacity:1;fill-rule:evenodd;stroke:none"
             id="path448" /></g><g
           id="g450"
           transform="translate(62.3887,100.006)"><path
             d="m 0,0 c -0.082,-0.055 -0.669,0.279 -1.271,1.239 -0.283,0.472 -0.49,1.264 -0.112,2.031 0.178,0.373 0.541,0.766 1.069,0.92 C 0.206,4.348 0.738,4.236 1.147,4.113 1.994,3.826 2.528,3.672 3.088,3.892 3.635,4.084 3.993,4.483 4.133,4.886 4.425,5.732 4.04,6.324 4.17,6.384 4.224,6.476 4.959,5.951 4.785,4.738 4.696,4.154 4.223,3.466 3.432,3.136 3.043,2.968 2.573,2.883 2.095,2.943 1.629,3.001 1.227,3.157 0.862,3.263 -0.596,3.879 -1.054,2.281 -0.654,1.492 -0.301,0.626 0.13,0.08 0,0"
             style="fill:#f0eaee;fill-opacity:1;fill-rule:evenodd;stroke:none"
             id="path452" /></g><g
           id="g454"
           transform="translate(66.3876,86.4054)"><path
             d="m 0,0 c -0.08,-0.053 -0.668,0.279 -1.271,1.241 -0.281,0.47 -0.489,1.264 -0.11,2.029 0.176,0.375 0.539,0.767 1.069,0.921 0.52,0.157 1.05,0.048 1.459,-0.077 C 1.994,3.826 2.53,3.672 3.088,3.893 3.634,4.086 3.992,4.483 4.133,4.887 4.425,5.734 4.042,6.324 4.17,6.384 4.224,6.477 4.958,5.953 4.787,4.74 4.697,4.156 4.222,3.467 3.432,3.136 3.045,2.969 2.573,2.885 2.095,2.945 1.629,3.003 1.229,3.157 0.862,3.263 -0.595,3.879 -1.054,2.281 -0.654,1.492 -0.301,0.626 0.132,0.08 0,0"
             style="fill:#f0eaee;fill-opacity:1;fill-rule:evenodd;stroke:none"
             id="path456" /></g><g
           id="g458"
           transform="translate(37.7531,91.2007)"><path
             d="M 0,0 C -0.09,0.014 -0.267,0.728 -0.047,1.996 0.071,2.608 0.448,3.441 1.202,3.823 1.566,4.017 2.066,4.091 2.523,3.835 2.976,3.588 3.262,3.105 3.456,2.699 3.84,1.833 4.099,1.31 4.619,1.089 5.113,0.855 5.612,0.938 5.97,1.183 6.719,1.696 6.847,2.485 6.974,2.443 7.07,2.483 7.221,1.491 6.314,0.574 5.874,0.139 5.105,-0.107 4.358,0.189 3.986,0.328 3.614,0.598 3.332,1 3.056,1.389 2.886,1.817 2.709,2.179 2.129,3.771 0.779,2.731 0.533,1.763 0.206,0.759 0.139,-0.028 0,0"
             style="fill:#f0eaee;fill-opacity:1;fill-rule:evenodd;stroke:none"
             id="path460" /></g><g
           id="g462"
           transform="translate(63.3539,73.6007)"><path
             d="M 0,0 C -0.09,0.014 -0.269,0.728 -0.047,1.996 0.07,2.608 0.448,3.441 1.202,3.823 1.564,4.017 2.066,4.091 2.523,3.834 2.976,3.588 3.26,3.105 3.456,2.699 3.84,1.833 4.099,1.31 4.619,1.089 5.112,0.855 5.612,0.938 5.971,1.183 6.72,1.696 6.848,2.485 6.972,2.443 7.069,2.483 7.222,1.491 6.313,0.574 5.873,0.139 5.104,-0.107 4.358,0.189 3.986,0.328 3.614,0.598 3.332,1 3.056,1.389 2.887,1.817 2.709,2.179 2.129,3.771 0.777,2.731 0.533,1.761 0.206,0.759 0.139,-0.028 0,0"
             style="fill:#f0eaee;fill-opacity:1;fill-rule:evenodd;stroke:none"
             id="path464" /></g><g
           id="g466"
           transform="translate(63.3539,127.201)"><path
             d="M 0,0 C -0.09,0.014 -0.269,0.729 -0.047,1.995 0.07,2.608 0.448,3.443 1.202,3.822 1.564,4.017 2.066,4.091 2.523,3.834 2.976,3.59 3.26,3.105 3.456,2.701 3.84,1.832 4.099,1.31 4.619,1.089 5.112,0.856 5.612,0.938 5.971,1.182 6.72,1.695 6.848,2.484 6.972,2.443 7.069,2.484 7.222,1.493 6.313,0.576 5.873,0.139 5.104,-0.106 4.358,0.188 3.986,0.33 3.614,0.6 3.332,1 3.056,1.391 2.887,1.819 2.709,2.178 2.129,3.773 0.777,2.733 0.533,1.763 0.206,0.759 0.139,-0.026 0,0"
             style="fill:#f0eaee;fill-opacity:1;fill-rule:evenodd;stroke:none"
             id="path468" /></g><g
           id="g470"
           transform="translate(54.2089,67.2253)"><path
             d="m 0,0 c -0.057,-0.077 -0.813,-0.005 -1.897,0.611 -0.518,0.308 -1.117,0.924 -1.111,1.735 -0.006,0.394 0.166,0.875 0.627,1.207 0.449,0.331 1.04,0.433 1.516,0.479 0.999,0.065 1.614,0.13 2.074,0.532 C 1.666,4.938 1.83,5.419 1.775,5.826 1.654,6.675 0.973,7.051 1.075,7.151 1.083,7.251 2.086,7.067 2.509,5.939 2.706,5.396 2.566,4.617 1.928,4.031 1.617,3.739 1.184,3.487 0.67,3.362 0.169,3.239 -0.313,3.224 -0.735,3.181 -2.513,3.174 -2.19,1.604 -1.398,1.064 -0.613,0.436 0.091,0.12 0,0"
             style="fill:#f0eaee;fill-opacity:1;fill-rule:evenodd;stroke:none"
             id="path472" /></g><g
           id="g474"
           transform="translate(24.3126,119.996)"><path
             d="m 0,0 c 0.082,0.049 0.609,-0.362 1.089,-1.443 0.222,-0.531 0.34,-1.393 -0.098,-2.172 -0.205,-0.381 -0.59,-0.765 -1.11,-0.877 -0.513,-0.115 -1.009,0.055 -1.387,0.225 -0.781,0.39 -1.275,0.606 -1.83,0.427 -0.541,-0.152 -0.921,-0.542 -1.096,-0.957 -0.364,-0.871 -0.056,-1.539 -0.185,-1.59 -0.06,-0.093 -0.71,0.54 -0.422,1.813 0.143,0.611 0.663,1.297 1.451,1.572 0.387,0.139 0.844,0.185 1.294,0.073 0.438,-0.106 0.806,-0.311 1.145,-0.461 1.329,-0.796 1.926,0.86 1.624,1.738 C 0.224,-0.695 -0.133,-0.073 0,0"
             style="fill:#f0eaee;fill-opacity:1;fill-rule:evenodd;stroke:none"
             id="path476" /></g><g
           id="g478"
           transform="translate(53.1126,123.996)"><path
             d="m 0,0 c 0.082,0.049 0.609,-0.362 1.089,-1.443 0.222,-0.531 0.34,-1.395 -0.098,-2.172 -0.205,-0.381 -0.59,-0.765 -1.11,-0.877 -0.513,-0.115 -1.009,0.055 -1.387,0.226 -0.781,0.389 -1.275,0.605 -1.83,0.426 -0.541,-0.152 -0.921,-0.542 -1.096,-0.957 -0.364,-0.871 -0.056,-1.539 -0.185,-1.59 -0.06,-0.093 -0.71,0.538 -0.422,1.813 0.143,0.611 0.663,1.297 1.451,1.57 0.387,0.141 0.844,0.187 1.294,0.075 0.438,-0.106 0.806,-0.311 1.145,-0.461 1.329,-0.796 1.926,0.86 1.624,1.738 C 0.224,-0.695 -0.133,-0.073 0,0"
             style="fill:#f0eaee;fill-opacity:1;fill-rule:evenodd;stroke:none"
             id="path480" /></g><g
           id="g482"
           transform="translate(35.2707,92.8)"><path
             d="m 0,0 c -0.064,0.007 -0.053,0.674 0.02,1.871 0.072,1.198 0.207,2.929 0.394,5.065 0.371,4.269 0.957,10.168 1.644,16.663 0.156,1.612 0.236,3.181 0.02,4.645 -0.201,1.466 -0.757,2.783 -1.565,3.852 -1.63,2.16 -3.944,3.282 -5.911,3.763 -1.995,0.489 -3.694,0.465 -4.852,0.432 -1.163,-0.041 -1.81,-0.116 -1.82,-0.043 -0.011,0.056 0.616,0.254 1.79,0.41 1.17,0.147 2.91,0.28 5.025,-0.147 2.083,-0.421 4.609,-1.538 6.439,-3.881 0.911,-1.155 1.561,-2.651 1.791,-4.244 0.246,-1.593 0.161,-3.242 0.003,-4.88 C 2.289,16.992 1.602,11.118 1.064,6.863 0.794,4.736 0.559,3.017 0.376,1.832 0.195,0.645 0.064,-0.007 0,0"
             style="fill:#51a8cd;fill-opacity:1;fill-rule:evenodd;stroke:none"
             id="path484" /></g><g
           id="g486"
           transform="translate(37.6003,94.3615)"><path
             d="m 0,0 c 0.026,-0.134 -6.04,-0.584 -13.551,-1.004 -7.512,-0.422 -13.622,-0.654 -13.649,-0.519 -0.027,0.134 6.04,0.584 13.553,1.004 C -6.139,-0.098 -0.027,0.135 0,0"
             style="fill:#51a8cd;fill-opacity:1;fill-rule:evenodd;stroke:none"
             id="path488" /></g><g
           id="g490"
           transform="translate(71.7629,98.4005)"><path
             d="m 0,0 c -0.286,0.028 1.099,5.204 -0.482,11.37 -1.483,6.191 -5.11,10.063 -4.869,10.226 0.067,0.07 1.063,-0.776 2.3,-2.492 1.235,-1.706 2.624,-4.347 3.414,-7.516 C 1.144,8.418 1.152,5.418 0.861,3.316 0.573,1.203 0.092,-0.029 0,0"
             style="fill:#51a8cd;fill-opacity:1;fill-rule:evenodd;stroke:none"
             id="path492" /></g><g
           id="g494"
           transform="translate(140.9863,98.2056)"><path
             d="m 0,0 c 0.221,1.449 0.179,2.828 1.002,4.105 1.639,2.548 3.974,1.914 6.236,0.794 2.296,-1.137 4.456,-1.82 6.953,-0.757 3.933,1.676 5.674,7.407 2.014,10.175 -1.187,0.898 -2.409,-0.581 -2.232,-1.689 C 14.222,11.067 14.994,9.344 13.635,8.002 11.818,6.207 9.685,7.71 7.869,8.518 5.917,9.388 3.844,9.58 1.826,8.78 -1.647,7.401 -4.171,2.767 -1.412,-0.367 -1.023,-0.809 -0.093,-0.608 0,0"
             style="fill:#0f84c0;fill-opacity:1;fill-rule:evenodd;stroke:none"
             id="path496" /></g><g
           id="g498"
           transform="translate(151.2073,165.953)"><path
             d="m 0,0 c 0.359,-2.43 2.769,-7.559 5.311,-8.267 1.348,-0.376 2.35,0.554 3.397,1.309 1.908,1.375 3.792,2.782 5.679,4.189 0.681,0.506 1.086,1.483 0.578,2.301 C 13.295,2.221 11.626,4.911 9.956,7.598 9.513,8.31 8.493,8.748 7.756,8.201 5.67,6.658 3.438,5.227 1.534,3.441 0.233,2.218 1.894,0.135 3.356,0.97 5.475,2.183 7.407,3.836 9.38,5.295 8.645,5.496 7.912,5.697 7.179,5.898 8.847,3.21 10.517,0.521 12.186,-2.166 12.379,-1.399 12.571,-0.63 12.764,0.137 11.631,-0.707 10.496,-1.546 9.367,-2.394 8.8,-2.818 6.484,-5.031 5.869,-4.886 5.139,-4.714 3.962,-2.514 3.501,-1.939 2.699,-0.943 1.949,-0.001 0.914,0.736 0.416,1.093 -0.073,0.505 0,0"
             style="fill:#f2bb6a;fill-opacity:1;fill-rule:evenodd;stroke:none"
             id="path500" /></g><g
           id="g502"
           transform="translate(127.5483,140.858)"><path
             d="M 0,0 C -2.814,-2.524 -3.885,-6.452 -1.2,-9.483 1.326,-12.338 6.218,-12.944 9.374,-10.669 16.997,-5.176 9.052,4.958 0.828,2.861 -0.695,2.473 -0.315,0.445 1.19,0.365 3.594,0.238 6.168,0.151 8.088,-1.421 10.152,-3.112 10.197,-5.971 8.506,-7.914 4.022,-13.061 -3.765,-5.482 0.944,-0.881 1.537,-0.301 0.622,0.557 0,0"
             style="fill:#829fd8;fill-opacity:1;fill-rule:evenodd;stroke:none"
             id="path504" /></g><g
           id="g506"
           transform="translate(189.6243,117.04)"><path
             d="m 0,0 c -0.907,-5.036 -1.679,-10.082 -2.4,-15.151 -0.173,-1.219 0.612,-2.042 1.743,-1.865 4.45,0.692 8.887,1.331 13.279,2.369 0.845,0.201 1.188,1.314 0.787,2.071 C 10.92,-7.89 7.75,-1.36 3.067,1.197 1.881,1.845 0.202,0.444 1.089,-0.92 c 1.393,-2.145 3.455,-3.754 5.077,-5.719 1.869,-2.264 3.623,-4.699 4.97,-7.36 0.378,0.707 0.757,1.414 1.135,2.119 -4.599,-0.485 -9.127,-1.371 -13.681,-2.214 0.599,-0.487 1.196,-0.973 1.793,-1.462 0.548,5.097 1.038,10.184 1.395,15.298 C 1.855,0.821 0.194,1.075 0,0"
             style="fill:#f05278;fill-opacity:1;fill-rule:evenodd;stroke:none"
             id="path508" /></g><g
           id="g510"
           transform="translate(167.8023,126.26)"><path
             d="m 0,0 c 1.292,4.772 2.338,9.905 2.596,14.791 0.08,1.525 -2.927,1.905 -3.273,0.367 C -1.766,10.32 -2.158,5.156 -2.202,0.246 -2.21,-0.777 -0.281,-1.035 0,0"
             style="fill:#f27a6e;fill-opacity:1;fill-rule:evenodd;stroke:none"
             id="path512" /></g><g
           id="g514"
           transform="translate(221.4333,126.897)"><path
             d="m 0,0 c 4.605,-0.87 9.462,-1.477 14.111,-1.249 1.707,0.082 1.643,3.287 0,3.517 C 9.573,2.906 4.78,2.769 0.233,2.326 -0.679,2.237 -1.042,0.198 0,0"
             style="fill:#f2bb6a;fill-opacity:1;fill-rule:evenodd;stroke:none"
             id="path516" /></g><g
           id="g518"
           transform="translate(182.0333,188.018)"><path
             d="m 0,0 c 4.121,-2.121 8.638,-4.188 13.103,-5.56 1.407,-0.432 2.362,1.659 1.017,2.302 C 9.92,-1.248 5.19,0.302 0.685,1.548 -0.272,1.811 -0.895,0.461 0,0"
             style="fill:#f05278;fill-opacity:1;fill-rule:evenodd;stroke:none"
             id="path520" /></g><g
           id="g522"
           transform="translate(195.9063,149.278)"><path
             d="m 0,0 c -0.092,0.08 -0.184,0.161 -0.276,0.243 -1.205,1.066 -3.184,1.273 -4.357,0 -1.186,-1.288 -1.142,-3.057 0,-4.348 0.081,-0.09 0.161,-0.182 0.244,-0.273 1.079,-1.218 3.303,-1.182 4.389,0 1.081,1.173 1.298,3.231 0,4.378"
             style="fill:#51a8cd;fill-opacity:1;fill-rule:evenodd;stroke:none"
             id="path524" /></g><g
           id="g526"><g
             id="g528" /><g
             id="g544"><g
               clip-path="url(#clipPath532)"
               id="g542"><g
                 transform="translate(87.7271,237.0856)"
                 id="g536"><path
                   d="m 0,0 c -2.42,-0.79 -4.63,-2.18 -6.46,-3.97 6.85,6.93 19.5,6.76 25.85,-0.65 6.41,-7.47 4.87,-20.41 -3.12,-26.15 -7.98,-5.73 -20.62,-2.98 -25.55,5.57 -2.55,4.43 -3.07,10.02 -1.32,14.84 0.84,2.33 2.22,4.45 3.96,6.2 z"
                   style="fill:#99ddf8;fill-opacity:1;fill-rule:nonzero;stroke:none"
                   id="path534" /></g><g
                 transform="translate(87.7271,237.0856)"
                 id="g540"><path
                   d="m 0,0 -6.64,-4.16 c 0.06,0.07 0.12,0.13 0.18,0.19 1.83,1.79 4.04,3.18 6.46,3.97"
                   style="fill:#99ddf8;fill-opacity:1;fill-rule:nonzero;stroke:none"
                   id="path538" /></g></g></g></g></g></g></g></svg>
