<?xml version="1.0" encoding="utf-8"?>
<!-- Generator: Adobe Illustrator 26.0.1, SVG Export Plug-In . SVG Version: 6.00 Build 0)  -->
<svg version="1.1" xmlns="http://www.w3.org/2000/svg" xmlns:xlink="http://www.w3.org/1999/xlink" x="0px" y="0px"
	 viewBox="0 0 1920 1080" style="enable-background:new 0 0 1920 1080;" xml:space="preserve">
<style type="text/css">
	.st0{fill-rule:evenodd;clip-rule:evenodd;fill:none;}
	.st1{fill-rule:evenodd;clip-rule:evenodd;fill:#A2D9F7;}
	.st2{fill-rule:evenodd;clip-rule:evenodd;fill:#413D3D;}
	.st3{fill-rule:evenodd;clip-rule:evenodd;fill:#8BA7D7;}
	.st4{fill-rule:evenodd;clip-rule:evenodd;fill:#43A7CF;}
	.st5{fill-rule:evenodd;clip-rule:evenodd;fill:#F3ADA7;}
	.st6{fill-rule:evenodd;clip-rule:evenodd;fill:#70A6C4;}
	.st7{fill-rule:evenodd;clip-rule:evenodd;fill:#F6C782;}
	.st8{fill-rule:evenodd;clip-rule:evenodd;fill:#6DC9F3;}
	.st9{fill-rule:evenodd;clip-rule:evenodd;fill:#FFFFFF;}
	.st10{fill-rule:evenodd;clip-rule:evenodd;fill:#25336B;}
	.st11{display:none;fill-rule:evenodd;clip-rule:evenodd;fill:#DBD2E8;}
	.st12{fill-rule:evenodd;clip-rule:evenodd;fill:#DBD2E8;}
	.st13{fill-rule:evenodd;clip-rule:evenodd;fill:#F3EFF2;}
	.st14{fill-rule:evenodd;clip-rule:evenodd;fill:#007FBA;}
	.st15{fill-rule:evenodd;clip-rule:evenodd;fill:#EB6C7C;}
	.st16{fill-rule:evenodd;clip-rule:evenodd;fill:#F0917C;}
</style>
<g id="New_Layer">
	<g>
		<g>
			<g>
				<g>
					<polyline class="st0" points="828.5,-661.39 1092.31,-661.39 1092.31,-431.06 828.5,-431.06 828.5,-661.39 					"/>
					<path class="st1" d="M895.52-435.34c-32.32-10.87-60.35-37.87-66.09-71.4c-5.74-33.53,15.46-71.33,48.78-78.6
						c15.75-3.44,32.76-0.37,47.81-6.14c28.39-10.89,38.03-47.72,64.26-63.08c25.27-14.8,59.9-4.12,78.73,18.27
						c18.82,22.4,24.31,53.3,23.16,82.5c-1.69,42.9-19.97,89.17-58.99,107.31C1000.3-431.18,930.79-426.85,895.52-435.34"/>
				</g>
				<path class="st1" d="M856.5-442.74c7.12,11.79,21.79,16.22,35.16,15.93c13.37-0.28,26.44-4.27,39.79-5.07
					c21.16-1.28,41.89,5.42,62.68,9.67c20.8,4.24,43.53,5.76,62.08-4.92c4.54-2.61,8.92-6.18,10.76-11.24
					c1.84-5.05,0.18-11.76-4.61-13.85c-1.85-0.81-3.92-0.86-5.93-0.9c-44.55-0.86-89.11-1.72-133.66-2.58
					c-22.68-0.44-47.68-0.04-64.69,15.59"/>
				<g>
					<path class="st2" d="M1048.42-575.63c-2.74,2.62-3.78,6.69-1.17,9.84c2.46,2.96,7.22,3.59,10.3,1.23
						c7.42-5.7-0.31-16.21-8.32-14.03c-1.48,0.4-1.11,2.51,0.35,2.59c2.34,0.13,4.85,0.22,6.72,1.85c2.01,1.75,2.05,4.72,0.41,6.73
						c-4.37,5.34-11.95-2.52-7.36-7.29C1049.92-575.32,1049.03-576.21,1048.42-575.63"/>
					<path class="st2" d="M869.83-601.52c-2.76-1.24-6.15-0.95-8.65,0.73c-2.51,1.68-4.04,4.7-3.92,7.71
						c0.1,2.35,1.04,5.02-0.46,6.84c-1.16,1.4-3.23,1.53-4.9,2.28c-3.16,1.42-4.74,5.58-3.3,8.73c0.78,1.7,2.32,3.27,2.03,5.11
						c-0.19,1.19-1.14,2.14-2.2,2.74c-1.06,0.6-2.24,0.94-3.33,1.48c-3.98,1.94-6.4,6.44-6.29,10.85c0.12,4.41,2.56,8.59,6.05,11.3
						c3.5,2.71,7.96,4.03,12.4,4.19c4.44,0.16,9.09-0.87,12.48-3.73c2.55-2.15,4.21-5.16,5.43-8.24c2.33-5.87,3.27-12.27,2.74-18.56
						c-0.56-6.52-2.68-12.84-3.14-19.37c-0.16-2.19-0.12-4.4-0.61-6.54c-0.49-2.14-1.59-4.25-3.48-5.39"/>
					<path class="st2" d="M868.82-600.67c2.52-5.22,7.54-9.17,13.23-10.43c3.49-0.77,7.32-0.51,10.39,1.32
						c3.07,1.83,5.19,5.39,4.72,8.92c-0.29,2.18-1.48,4.13-2.23,6.19c-0.76,2.07-1,4.59,0.4,6.29c1.26,1.53,3.42,1.9,5.14,2.89
						c2.46,1.41,4,4.26,3.84,7.08c-0.16,2.82-2.03,5.47-4.63,6.59c2.59,0.3,5.02,1.74,6.51,3.85c1.5,2.12,2.03,4.88,1.44,7.4
						c-0.85,3.61-3.8,6.37-6.98,8.33c-4.41,2.71-9.52,4.28-14.71,4.52c-5.5,0.25-11.59-1.37-14.58-5.97
						c-1.96-3.02-2.26-6.78-2.48-10.37c-0.66-10.83-1.12-21.67-1.58-32.5c-0.07-1.74-0.14-3.51,0.27-5.21"/>
					<path class="st2" d="M887.32-551.76l49.29,18.38l-4.71-19.79l12.82-3.24c0,0,13.79,38.7,4.21,39.73
						c-16.76,1.81-42.13-4.79-42.13-4.79L887.32-551.76z"/>
					<path class="st2" d="M883.01-467.3c0,0,59.55-64.63,99.76-50.52c40.2,14.11,57.18,79.94,57.18,79.94l-32.02-0.52
						c0,0-25.29-49.72-37.63-47.79c-12.34,1.93-50.45,49.25-50.45,49.25L883.01-467.3z"/>
					<path class="st2" d="M901.85-506.54l2.47,37.92c-12.84,15.69-57.53-4.6-57.53-4.6l-0.52-15.86l-1.04-37.76
						c1.03-15.04,15.08-22.42,15.08-22.42c5.81-2.88,14.66-4.51,22.64-4.12c8.33,0.41,10.39,4.38,13.82,11.93
						C899.55-535.33,907.07-525.38,901.85-506.54"/>
					<path class="st2" d="M855.15-466.07c0,0-6.83,27.66,14,32.02c20.83,4.36,97.45-5.84,117.41-4.1
						c19.96,1.74,76.71,5.04,76.71,5.04l4.16-32.85c0,0-88.32-4.21-98.3-1.74C959.14-465.23,855.15-466.07,855.15-466.07"/>
					<path class="st2" d="M865.14-514.43c0,0-6.25,36.6,2.56,35.7c28.98-2.96,46.23-3.36,46.23-3.36l4.8,9.91
						c0.11,1.69-54.87,17.34-63.71,12.17c-6.24-3.65-16.18-13.49-11.66-42.9l1.07-9.86L865.14-514.43z"/>
					<polygon class="st2" points="891.29,-461.88 891.23,-464.33 927.6,-469.44 937.25,-503.01 977.54,-503.98 966.67,-467.65 					
						"/>
					<path class="st2" d="M956.66-487.1c0.04,1.64-1.26,3-2.91,3.04c-1.65,0.04-3.01-1.26-3.05-2.89c-0.04-1.64,1.26-3,2.91-3.04
						C955.25-490.03,956.62-488.73,956.66-487.1"/>
					<path class="st2" d="M957.85-487.13c0.06,2.29-1.77,4.2-4.07,4.25c-2.31,0.06-4.22-1.76-4.28-4.05
						c-0.06-2.29,1.77-4.2,4.07-4.25C955.88-491.23,957.8-489.42,957.85-487.13"/>
					<path class="st2" d="M849.2-538.71c0,0-6.76,6.45-8.27,30.87l26.16-2.88C867.09-510.71,871.45-552.3,849.2-538.71"/>
					<path class="st2" d="M1041.22-612.13c0,0,9.27,20.71,11.86,19.62c2.59-1.08,26.54-15.86,26.54-15.86s-9.82-18.54-11.86-19.62
						C1065.72-629.07,1041.22-612.13,1041.22-612.13"/>
					<path class="st2" d="M1067.76-627.99c0.12,0.04-0.57,2.17-1.76,5.57c-1.2,3.4-2.91,8.07-4.85,13.21
						c-0.05,0.13-0.1,0.25-0.14,0.37l-0.13,0.35l-0.37-0.06c-5.36-0.87-10.19-1.7-13.68-2.35c-3.48-0.65-5.62-1.1-5.6-1.22
						c0.02-0.12,2.19,0.12,5.7,0.6c3.51,0.49,8.36,1.22,13.72,2.08l-0.5,0.29c0.04-0.12,0.09-0.24,0.14-0.37
						c1.94-5.14,3.75-9.78,5.11-13.11C1066.75-625.99,1067.64-628.03,1067.76-627.99"/>
					<path class="st2" d="M1050.04-594.95c-0.24-0.05,0.48-3.46,1.61-7.59c1.14-4.14,2.25-7.43,2.49-7.36s-0.48,3.48-1.61,7.59
						C1051.4-598.18,1050.28-594.89,1050.04-594.95"/>
					<path class="st2" d="M1078.04-612.49c-0.04,0.25-3.38-0.08-7.46-0.72c-4.08-0.64-7.36-1.36-7.32-1.61
						c0.04-0.25,3.38,0.08,7.47,0.72C1074.8-613.46,1078.08-612.74,1078.04-612.49"/>
					<path class="st2" d="M862.3-589.89l0.59,7.75c0,0-6.63,0.89-4.74,6.9c1.89,6.01,6.42,3.38,6.42,3.38s1.13,15.41,17.01,10.52
						c12.63-3.89,11.86-20.15,10.26-34.02c-0.62-5.37-5.73-9.07-11.07-8.03l-9.54,1.85C865.71-600.47,861.88-595.46,862.3-589.89"/>
					<path class="st2" d="M862.89-575.7l4.28,22.68c0.96,5.11,6.03,8.38,11.11,7.17c4.71-1.12,7.73-5.7,6.88-10.44l-2.32-13
						L862.89-575.7z"/>
					<path class="st2" d="M880.45-575.45c0.06-0.04,0.19,0.2,0.48,0.23c0.28,0.03,0.71-0.26,0.82-0.88
						c0.14-0.61,0.06-1.41-0.02-2.34c-0.07-1-0.15-1.99-0.22-3.02c-0.27-4.29-0.29-7.78-0.04-7.8c0.25-0.02,0.67,3.45,0.94,7.74
						c0.05,1.04,0.1,2.03,0.15,3.03c0.04,0.92,0.07,1.82-0.2,2.58c-0.21,0.78-1.02,1.27-1.53,1.04
						C880.35-575.12,880.42-575.45,880.45-575.45"/>
					<path class="st2" d="M885.6-562.91c0.07,0.08-0.56,0.77-1.86,1.52c-1.29,0.74-3.31,1.48-5.63,1.52
						c-2.32,0.05-4.37-0.6-5.69-1.29c-1.33-0.69-1.99-1.35-1.93-1.44c0.12-0.25,3.21,1.93,7.6,1.83
						C882.47-560.85,885.47-563.16,885.6-562.91"/>
					<path class="st2" d="M882.5-572.27c0.09,0.06-0.12,0.57-0.82,1.06c-0.68,0.49-1.93,0.88-3.24,0.47
						c-1.31-0.42-2.09-1.47-2.36-2.26c-0.28-0.81-0.15-1.34-0.04-1.34c0.14-0.01,0.25,0.46,0.62,1.07c0.36,0.6,1.07,1.35,2.05,1.67
						c0.99,0.31,2,0.11,2.65-0.17C882.03-572.03,882.39-572.35,882.5-572.27"/>
					<path class="st2" d="M862.4-574.48c0,0.11-0.39,0.29-1.08,0.09c-0.33-0.1-0.77-0.4-0.95-0.9c-0.09-0.25-0.14-0.55-0.04-0.87
						c0.07-0.31,0.37-0.64,0.7-0.75c0.45-0.18,1.08-0.07,1.37,0.42l-0.77,0.4c-0.5-1.27-0.75-2.24-0.56-2.33
						c0.19-0.08,0.75,0.75,1.36,1.98l-0.77,0.4c-0.02-0.03-0.14-0.08-0.3-0.02c-0.17,0.05-0.25,0.25-0.19,0.52
						c0.06,0.25,0.22,0.44,0.43,0.59C862.01-574.7,862.41-574.62,862.4-574.48"/>
					<path class="st2" d="M886.81-585.36c-0.24,0.06-0.57-0.46-0.73-1.14c-0.16-0.68-0.08-1.28,0.16-1.34
						c0.24-0.06,0.57,0.46,0.72,1.14C887.12-586.02,887.05-585.42,886.81-585.36"/>
					<path class="st2" d="M873.37-584.12c-0.24,0.07-0.59-0.44-0.78-1.12c-0.19-0.69-0.15-1.29,0.09-1.36
						c0.24-0.07,0.59,0.43,0.78,1.12C873.65-584.79,873.61-584.19,873.37-584.12"/>
					<path class="st2" d="M874.62-589.76c-0.08,0.24-0.79,0.24-1.58,0.46c-0.8,0.19-1.42,0.55-1.6,0.38
						c-0.19-0.15,0.3-0.97,1.37-1.25C873.87-590.46,874.71-589.99,874.62-589.76"/>
					<path class="st2" d="M888.34-591.92c-0.1,0.24-0.89,0.12-1.81,0.21c-0.92,0.07-1.68,0.32-1.82,0.11
						c-0.15-0.19,0.57-0.91,1.74-1.01C887.62-592.72,888.45-592.14,888.34-591.92"/>
					<path class="st2" d="M862.89-582.14c4.43-4.3,5.73-11.45,6.93-17.48c4.1,2.97,9.75,3.7,14.48,1.88
						c1.48,1.73,3.23,3.25,5.16,4.48c0.55,0.35,1.2,0.69,1.82,0.5c0.74-0.22,1.07-1.07,1.25-1.82c0.57-2.41,0.59-4.98-0.26-7.31
						c-0.84-2.32-2.61-4.37-4.93-5.26c-2.48-0.95-5.26-0.54-7.84,0.12c-3.87,1-7.61,2.53-11.06,4.55c-3.39,1.97-6.65,4.59-8.09,8.22
						c-1.44,3.64-1.43,10.7,2.04,12.54"/>
					<path class="st2" d="M880.98-571.42c0.21,1.22-0.84,2.41-2.27,2.12c-1.43-0.31-1.9-1.82-1.21-2.85
						c0.69-1.05,1.62-1.67,2.15-1.57C880.18-573.6,880.77-572.66,880.98-571.42"/>
					<path class="st2" d="M875.46-578.62c0.22,1.22-1.3,2.52-3.42,2.61c-2.12,0.1-3.75-1.05-3.64-2.29
						c0.11-1.25,1.65-2.13,3.44-2.22C873.62-580.6,875.24-579.85,875.46-578.62"/>
					<path class="st2" d="M892.24-579.98c0.25,1.22-1.08,2.51-3,2.61c-1.92,0.1-3.38-1.05-3.26-2.29c0.12-1.25,1.47-2.14,3.02-2.22
						C890.55-581.96,891.99-581.21,892.24-579.98"/>
					<path class="st2" d="M862.71-561.62c-0.25-0.01-0.4-2.49-0.56-5.55c-0.16-3.06-0.27-5.54-0.02-5.58
						c0.24-0.03,0.77,2.43,0.93,5.53C863.23-564.12,862.96-561.61,862.71-561.62"/>
					<path class="st2" d="M889.05-551.92c-4.29-1.7,28.7,10.48,28.7,10.48l-3.35,22.44l-12.55-4.09L889.05-551.92z"/>
					<path class="st2" d="M869.41-602.68c1.04-1.56,1.38-3.56,0.92-5.37c-0.38-1.49-1.51-2.97-3.06-3.05
						c-0.88-0.04-1.73,0.38-2.37,0.98c-1.59,1.47-2,4.05-0.94,5.93c1.06,1.88,3.49,2.88,5.58,2.3"/>
					<path class="st2" d="M1066.53-458.96c0,0,10.73-15.3,9.42-9.51c-1.31,5.79-12.21,31.53-12.21,31.53L1066.53-458.96z"/>
					<path class="st2" d="M910.88-482.09c0,0,14.18-4.42,13.69-2.97c-0.49,1.45-2.9,1.51-5.31,3.85c0,0,15.85,0.17,15.09,1.47
						c-0.76,1.3-11.08,1.63-11.14,1.85c-0.06,0.22,11.29,0.5,11.03,1.7c-0.26,1.2-10.8,0.91-10.8,0.91s9.78,1.03,9.57,2.33
						c-0.2,1.3-9.21,0.36-9.21,0.36s7.54,0.86,7.35,2.03c-0.12,0.71-22.08,0.88-22.13,1.4C909-468.88,910.88-482.09,910.88-482.09"
						/>
					<path class="st2" d="M932.84-551.92c0,0-8.61-11.97-7.08-11.96c1.53,0.01,2.34,2.26,5.32,3.8c0,0-4.76-14.97-3.29-14.65
						c1.47,0.31,4.99,9.92,5.22,9.91c0.23-0.01-3.03-10.77-1.81-10.9c1.22-0.13,4.22,9.88,4.22,9.88s-2.05-9.52-0.76-9.73
						c1.3-0.21,3.2,8.55,3.2,8.55s-1.53-7.36-0.35-7.54c0.72-0.11,7.22,18.15,7.22,18.15C944.56-556.41,932.84-551.92,932.84-551.92
						"/>
					<path class="st2" d="M853.43-518.99c0.09-0.01,0.42,0.56,0.43,1.69c0,0.55-0.23,1.34-0.93,1.84c-0.34,0.25-0.83,0.42-1.35,0.31
						c-0.51-0.11-0.9-0.45-1.17-0.75c-0.56-0.65-0.93-1.04-1.5-1.1c-0.55-0.09-1.05,0.1-1.37,0.39c-0.67,0.61-0.65,1.31-0.78,1.3
						c-0.09,0.06-0.44-0.75,0.32-1.74c0.37-0.47,1.11-0.86,1.93-0.78c0.41,0.03,0.84,0.18,1.21,0.46c0.36,0.27,0.61,0.59,0.86,0.86
						c0.9,1.22,2.09,0.03,2.15-0.85C853.36-518.3,853.28-518.98,853.43-518.99"/>
					<path class="st2" d="M861.17-525.64c-0.06-0.07,0.26-0.64,1.23-1.24c0.47-0.28,1.27-0.51,2.06-0.17
						c0.39,0.16,0.8,0.49,0.97,0.98c0.17,0.49,0.08,1-0.03,1.39c-0.27,0.81-0.41,1.33-0.17,1.85c0.21,0.51,0.63,0.84,1.04,0.96
						c0.87,0.25,1.46-0.13,1.53-0.01c0.1,0.05-0.42,0.76-1.66,0.64c-0.6-0.07-1.31-0.49-1.67-1.23c-0.18-0.37-0.28-0.81-0.24-1.26
						c0.05-0.44,0.19-0.83,0.29-1.18c0.58-1.4-1.06-1.79-1.85-1.38C861.8-525.95,861.26-525.52,861.17-525.64"/>
					<path class="st2" d="M860.65-542.2c-0.06-0.08,0.26-0.64,1.22-1.24c0.47-0.28,1.28-0.51,2.07-0.17
						c0.39,0.16,0.8,0.49,0.97,0.98c0.18,0.49,0.08,1-0.03,1.39c-0.27,0.81-0.41,1.32-0.17,1.85c0.21,0.51,0.63,0.84,1.04,0.96
						c0.87,0.25,1.46-0.13,1.53-0.01c0.1,0.05-0.42,0.76-1.66,0.64c-0.6-0.07-1.31-0.5-1.67-1.23c-0.18-0.36-0.28-0.81-0.24-1.26
						c0.05-0.44,0.19-0.83,0.29-1.18c0.58-1.4-1.06-1.79-1.85-1.38C861.28-542.51,860.74-542.08,860.65-542.2"/>
					<path class="st2" d="M877.17-520.63c-0.07,0.06-0.67-0.21-1.35-1.11c-0.32-0.44-0.62-1.22-0.35-2.03
						c0.12-0.4,0.42-0.83,0.9-1.05c0.47-0.22,0.99-0.16,1.39-0.09c0.84,0.19,1.36,0.29,1.87,0.01c0.5-0.26,0.78-0.7,0.87-1.12
						c0.18-0.89-0.26-1.44-0.14-1.51c0.04-0.1,0.8,0.35,0.78,1.59c-0.01,0.6-0.38,1.34-1.09,1.76c-0.35,0.21-0.78,0.35-1.24,0.34
						c-0.45-0.01-0.85-0.12-1.21-0.18c-1.46-0.46-1.7,1.21-1.22,1.95C876.81-521.23,877.28-520.73,877.17-520.63"/>
					<path class="st2" d="M888.43-503.31c0.05,0.08-0.31,0.62-1.31,1.15c-0.49,0.25-1.31,0.41-2.07,0.02
						c-0.38-0.18-0.76-0.54-0.9-1.05c-0.14-0.5,0-1,0.14-1.38c0.33-0.79,0.5-1.29,0.3-1.83c-0.17-0.53-0.57-0.88-0.97-1.03
						c-0.85-0.31-1.47,0.03-1.52-0.1c-0.09-0.06,0.47-0.73,1.7-0.51c0.59,0.11,1.27,0.59,1.58,1.35c0.15,0.38,0.22,0.83,0.14,1.28
						c-0.08,0.44-0.25,0.81-0.38,1.16c-0.69,1.35,0.92,1.86,1.74,1.51C887.78-503.06,888.35-503.44,888.43-503.31"/>
					<path class="st2" d="M901.69-530.63c0.05,0.08-0.31,0.62-1.31,1.15c-0.49,0.25-1.31,0.41-2.07,0.02
						c-0.38-0.18-0.76-0.54-0.9-1.05c-0.14-0.5,0-1,0.14-1.38c0.33-0.79,0.5-1.29,0.3-1.83c-0.17-0.53-0.57-0.88-0.97-1.03
						c-0.85-0.31-1.47,0.03-1.52-0.1c-0.09-0.05,0.47-0.73,1.7-0.51c0.59,0.11,1.27,0.59,1.58,1.35c0.16,0.38,0.22,0.83,0.14,1.28
						c-0.08,0.44-0.25,0.81-0.38,1.16c-0.69,1.36,0.92,1.86,1.74,1.52C901.04-530.37,901.61-530.76,901.69-530.63"/>
					<path class="st2" d="M910.73-534.79c0.06-0.08,0.69,0.08,1.54,0.84c0.4,0.38,0.83,1.09,0.72,1.93
						c-0.05,0.41-0.26,0.9-0.69,1.19c-0.43,0.3-0.94,0.34-1.36,0.34c-0.86-0.04-1.39-0.04-1.84,0.34c-0.44,0.34-0.64,0.83-0.65,1.26
						c-0.01,0.9,0.52,1.36,0.42,1.46c-0.02,0.11-0.85-0.2-1.06-1.42c-0.09-0.59,0.13-1.39,0.75-1.93c0.3-0.27,0.71-0.49,1.16-0.57
						c0.44-0.07,0.85-0.04,1.22-0.04c1.51,0.18,1.45-1.49,0.84-2.14C911.2-534.27,910.64-534.67,910.73-534.79"/>
					<path class="st2" d="M874.14-489.19c0.05,0.08-0.31,0.62-1.31,1.15c-0.49,0.25-1.31,0.41-2.07,0.02
						c-0.38-0.19-0.76-0.54-0.9-1.05c-0.14-0.5,0-1,0.14-1.38c0.33-0.79,0.51-1.29,0.31-1.83c-0.17-0.53-0.57-0.88-0.97-1.03
						c-0.85-0.31-1.47,0.03-1.52-0.1c-0.09-0.06,0.47-0.73,1.7-0.51c0.59,0.11,1.27,0.59,1.58,1.35c0.15,0.38,0.22,0.83,0.14,1.28
						c-0.08,0.44-0.25,0.81-0.38,1.16c-0.69,1.36,0.92,1.86,1.74,1.52C873.49-488.93,874.06-489.32,874.14-489.19"/>
					<path class="st2" d="M893.76-515.48c-0.08,0.05-0.64-0.28-1.21-1.26c-0.27-0.48-0.47-1.28-0.11-2.06
						c0.17-0.38,0.52-0.78,1.02-0.94c0.5-0.16,1-0.05,1.4,0.08c0.81,0.29,1.32,0.45,1.85,0.23c0.52-0.2,0.86-0.6,1-1.01
						c0.28-0.86-0.09-1.46,0.03-1.52c0.05-0.1,0.75,0.44,0.59,1.67c-0.09,0.59-0.54,1.29-1.29,1.63c-0.37,0.17-0.82,0.25-1.28,0.19
						c-0.44-0.06-0.83-0.22-1.18-0.32c-1.39-0.62-1.83,1-1.45,1.8C893.47-516.11,893.89-515.56,893.76-515.48"/>
					<path class="st2" d="M897.28-501.35c-0.08,0.05-0.64-0.28-1.21-1.26c-0.27-0.48-0.47-1.28-0.1-2.06
						c0.17-0.38,0.51-0.78,1.02-0.93c0.5-0.16,1-0.05,1.39,0.08c0.81,0.29,1.32,0.45,1.85,0.22c0.52-0.2,0.86-0.6,1-1.01
						c0.28-0.86-0.09-1.46,0.03-1.52c0.05-0.09,0.75,0.44,0.59,1.67c-0.09,0.59-0.54,1.29-1.29,1.63c-0.37,0.17-0.82,0.26-1.28,0.19
						c-0.44-0.06-0.83-0.22-1.18-0.32c-1.39-0.62-1.83,1-1.45,1.8C897-501.99,897.41-501.43,897.28-501.35"/>
					<path class="st2" d="M868.88-507.38c-0.09-0.01-0.28-0.63-0.05-1.74c0.12-0.53,0.52-1.26,1.31-1.59
						c0.38-0.17,0.91-0.23,1.39-0.01c0.48,0.22,0.78,0.64,0.98,0.99c0.4,0.76,0.68,1.21,1.22,1.4c0.52,0.2,1.04,0.13,1.42-0.08
						c0.79-0.45,0.92-1.14,1.05-1.1c0.1-0.03,0.26,0.83-0.69,1.63c-0.46,0.38-1.27,0.6-2.05,0.34c-0.39-0.12-0.78-0.36-1.08-0.71
						c-0.29-0.34-0.47-0.71-0.65-1.03c-0.61-1.39-2.03-0.48-2.29,0.36C869.1-508.04,869.03-507.35,868.88-507.38"/>
					<path class="st2" d="M894.53-489.94c-0.09-0.01-0.28-0.63-0.05-1.74c0.12-0.53,0.52-1.26,1.31-1.59
						c0.38-0.17,0.91-0.23,1.39-0.01c0.48,0.21,0.77,0.64,0.98,0.99c0.4,0.76,0.68,1.21,1.22,1.4c0.52,0.2,1.04,0.13,1.42-0.08
						c0.79-0.45,0.92-1.14,1.05-1.1c0.1-0.03,0.26,0.83-0.69,1.63c-0.46,0.38-1.27,0.6-2.05,0.34c-0.39-0.12-0.78-0.36-1.08-0.71
						c-0.29-0.34-0.47-0.71-0.65-1.03c-0.61-1.39-2.03-0.48-2.29,0.36C894.75-490.6,894.68-489.92,894.53-489.94"/>
					<path class="st2" d="M893.79-542.76c-0.09-0.01-0.28-0.64-0.05-1.74c0.12-0.53,0.52-1.26,1.31-1.59
						c0.38-0.17,0.91-0.23,1.39-0.01c0.48,0.21,0.77,0.64,0.98,0.99c0.4,0.76,0.68,1.22,1.22,1.41c0.52,0.2,1.04,0.13,1.42-0.08
						c0.79-0.45,0.92-1.14,1.05-1.1c0.1-0.04,0.26,0.83-0.69,1.63c-0.46,0.38-1.27,0.6-2.05,0.34c-0.39-0.12-0.78-0.36-1.08-0.71
						c-0.29-0.34-0.47-0.71-0.65-1.03c-0.61-1.39-2.03-0.48-2.29,0.36C894-543.43,893.93-542.74,893.79-542.76"/>
					<path class="st2" d="M885.41-482.93c-0.05,0.08-0.7,0.01-1.63-0.64c-0.44-0.32-0.96-0.97-0.95-1.83
						c-0.01-0.41,0.14-0.92,0.54-1.27c0.39-0.35,0.89-0.46,1.3-0.5c0.86-0.07,1.39-0.14,1.78-0.56c0.39-0.39,0.53-0.9,0.49-1.33
						c-0.1-0.9-0.69-1.29-0.6-1.4c0.01-0.11,0.87,0.09,1.23,1.28c0.17,0.57,0.05,1.39-0.5,2.01c-0.27,0.31-0.64,0.57-1.08,0.7
						c-0.43,0.13-0.84,0.15-1.21,0.19c-1.53,0.01-1.25,1.66-0.57,2.23C884.88-483.39,885.49-483.06,885.41-482.93"/>
					<path class="st2" d="M854.99-534.79c0.08-0.05,0.61,0.34,1.08,1.37c0.22,0.5,0.34,1.32-0.1,2.06c-0.2,0.36-0.59,0.72-1.11,0.83
						c-0.51,0.11-1-0.05-1.38-0.21c-0.78-0.37-1.27-0.57-1.82-0.4c-0.54,0.14-0.92,0.51-1.09,0.91c-0.36,0.83-0.06,1.46-0.18,1.51
						c-0.06,0.09-0.71-0.51-0.42-1.72c0.14-0.58,0.66-1.23,1.45-1.49c0.39-0.13,0.84-0.18,1.29-0.07c0.44,0.1,0.8,0.29,1.14,0.44
						c1.32,0.76,1.92-0.82,1.62-1.65C855.21-534.13,854.85-534.72,854.99-534.79"/>
					<path class="st2" d="M884.35-540.01c0.08-0.05,0.61,0.34,1.09,1.37c0.22,0.5,0.34,1.32-0.1,2.06c-0.2,0.36-0.59,0.72-1.11,0.83
						c-0.51,0.11-1-0.05-1.38-0.21c-0.78-0.37-1.27-0.58-1.82-0.4c-0.54,0.14-0.92,0.51-1.09,0.91c-0.36,0.83-0.06,1.46-0.18,1.51
						c-0.06,0.09-0.71-0.51-0.42-1.72c0.14-0.58,0.66-1.23,1.45-1.49c0.39-0.13,0.84-0.18,1.29-0.07c0.44,0.1,0.8,0.29,1.14,0.44
						c1.32,0.75,1.92-0.82,1.62-1.65C884.57-539.35,884.22-539.94,884.35-540.01"/>
					<path class="st2" d="M866.25-509.29c-0.06-0.01-0.05-0.64,0.02-1.79c0.07-1.14,0.2-2.8,0.39-4.84
						c0.36-4.08,0.94-9.71,1.62-15.91c0.15-1.54,0.23-3.04,0.02-4.44c-0.2-1.4-0.74-2.66-1.54-3.68c-1.6-2.06-3.87-3.13-5.81-3.59
						c-1.96-0.47-3.63-0.44-4.77-0.41c-1.14,0.04-1.78,0.11-1.79,0.04c-0.01-0.05,0.61-0.24,1.76-0.39
						c1.15-0.14,2.86-0.27,4.94,0.14c2.05,0.4,4.53,1.47,6.33,3.71c0.89,1.1,1.53,2.53,1.76,4.05c0.24,1.52,0.16,3.1,0,4.66
						c-0.68,6.22-1.35,11.83-1.88,15.9c-0.27,2.03-0.5,3.67-0.68,4.8C866.44-509.9,866.31-509.28,866.25-509.29"/>
					<path class="st2" d="M867.41-510.7c0.03,0.25-5.93,1.08-13.32,1.85c-7.38,0.78-13.38,1.21-13.41,0.96
						c-0.03-0.25,5.93-1.08,13.32-1.85C861.38-510.52,867.39-510.95,867.41-510.7"/>
					<path class="st2" d="M903.74-513.64c-0.3-0.03,1.14-5.26-0.5-11.49c-1.54-6.26-5.32-10.17-5.07-10.34
						c0.07-0.07,1.11,0.78,2.4,2.52c1.29,1.72,2.73,4.39,3.56,7.6c0.81,3.2,0.82,6.24,0.52,8.36
						C904.34-514.85,903.84-513.61,903.74-513.64"/>
					<path class="st2" d="M973.56-513.22c0.22-1.49,0.18-2.9,1.02-4.21c1.67-2.62,4.04-1.97,6.34-0.82
						c2.33,1.17,4.53,1.87,7.07,0.78c4-1.72,5.77-7.6,2.05-10.45c-1.21-0.92-2.45,0.6-2.27,1.73c0.25,1.6,1.04,3.37-0.34,4.75
						c-1.85,1.84-4.02,0.3-5.86-0.53c-1.98-0.89-4.09-1.09-6.14-0.27c-3.53,1.42-6.1,6.17-3.29,9.39
						C972.52-512.39,973.47-512.59,973.56-513.22"/>
					<path class="st2" d="M982.92-581.56c0.38,2.41,2.89,7.5,5.55,8.21c1.41,0.37,2.45-0.55,3.55-1.3c1.99-1.36,3.96-2.76,5.93-4.16
						c0.71-0.5,1.13-1.47,0.6-2.29c-1.74-2.67-3.49-5.34-5.23-8.01c-0.46-0.71-1.53-1.14-2.3-0.6c-2.18,1.53-4.51,2.95-6.5,4.72
						c-1.36,1.22,0.38,3.28,1.9,2.45c2.21-1.2,4.23-2.84,6.29-4.29c-0.77-0.2-1.53-0.4-2.3-0.6c1.74,2.67,3.49,5.34,5.23,8
						c0.2-0.76,0.4-1.52,0.6-2.29c-1.18,0.84-2.37,1.67-3.55,2.51c-0.59,0.42-3.01,2.62-3.65,2.47c-0.76-0.17-1.99-2.35-2.47-2.92
						c-0.84-0.99-1.62-1.92-2.7-2.66C983.35-582.64,982.84-582.06,982.92-581.56"/>
					<path class="st2" d="M958.22-556.68c-2.74,2.62-3.78,6.69-1.17,9.83c2.46,2.96,7.22,3.59,10.3,1.23
						c7.42-5.7-0.31-16.21-8.32-14.03c-1.48,0.4-1.11,2.51,0.35,2.59c2.34,0.13,4.85,0.22,6.72,1.85c2.01,1.75,2.05,4.72,0.41,6.73
						c-4.37,5.34-11.95-2.52-7.36-7.29C959.72-556.36,958.82-557.26,958.22-556.68"/>
					<path class="st2" d="M1021.3-532.47c-0.95,4.88-1.75,9.77-2.5,14.69c-0.18,1.18,0.64,1.98,1.82,1.81
						c4.64-0.67,9.27-1.29,13.85-2.3c0.88-0.19,1.24-1.27,0.82-2.01c-2.59-4.54-5.9-10.87-10.79-13.35
						c-1.24-0.63-2.99,0.73-2.06,2.05c1.45,2.08,3.6,3.64,5.3,5.54c1.95,2.19,3.78,4.55,5.18,7.13c0.39-0.68,0.79-1.37,1.18-2.05
						c-4.8,0.47-9.52,1.33-14.27,2.15c0.62,0.47,1.25,0.94,1.87,1.42c0.57-4.94,1.08-9.87,1.46-14.83
						C1023.23-533.26,1021.5-533.51,1021.3-532.47"/>
					<path class="st2" d="M1002.11-556.35c0.07-1.53-2.43-1.91-2.72-0.37c-0.9,4.85-1.23,10.02-1.27,14.95
						c-0.01,1.02,1.6,1.28,1.83,0.25C1001.02-546.31,1001.89-551.45,1002.11-556.35z"/>
					<path class="st2" d="M1067.8-541.28c1.81-0.06,1.75-2.57,0-2.75c-4.82-0.5-9.92-0.39-14.75-0.04
						c-0.97,0.07-1.35,1.67-0.25,1.82C1057.69-541.58,1062.86-541.11,1067.8-541.28z"/>
					<path class="st2" d="M1012.92-604.26c4.33,2.32,9.07,4.58,13.76,6.08c1.48,0.47,2.48-1.81,1.07-2.52
						c-4.41-2.2-9.38-3.9-14.11-5.26C1012.63-606.24,1011.98-604.76,1012.92-604.26"/>
					<path class="st2" d="M1026.65-564.79c-1.1-0.97-2.89-1.15-3.96,0c-1.08,1.17-1.04,2.77,0,3.94c0.07,0.08,0.15,0.16,0.22,0.25
						c0.98,1.1,3,1.07,3.99,0c0.98-1.06,1.18-2.93,0-3.97C1026.81-564.65,1026.73-564.72,1026.65-564.79z"/>
				</g>
				<path class="st3" d="M1045.65-579.86c-2.81,2.52-3.89,6.45-1.2,9.48c2.53,2.85,7.42,3.46,10.57,1.18
					c7.62-5.49-0.32-15.63-8.55-13.53c-1.52,0.39-1.14,2.42,0.36,2.5c2.4,0.13,4.98,0.21,6.9,1.79c2.06,1.69,2.11,4.55,0.42,6.49
					c-4.48,5.15-12.27-2.43-7.56-7.03C1047.19-579.56,1046.27-580.41,1045.65-579.86"/>
				<path class="st4" d="M866.7-604.64c-2.75-1.23-6.14-0.95-8.64,0.72c-2.5,1.67-4.04,4.67-3.92,7.66c0.1,2.34,1.04,4.99-0.46,6.8
					c-1.16,1.39-3.23,1.52-4.89,2.27c-3.16,1.42-4.73,5.55-3.3,8.68c0.78,1.69,2.32,3.25,2.02,5.09c-0.19,1.19-1.14,2.13-2.2,2.73
					c-1.06,0.6-2.24,0.94-3.33,1.47c-3.98,1.93-6.4,6.41-6.28,10.79c0.11,4.39,2.55,8.55,6.05,11.24c3.5,2.7,7.95,4,12.38,4.17
					c4.44,0.16,9.08-0.87,12.46-3.71c2.54-2.14,4.2-5.13,5.42-8.2c2.33-5.84,3.27-12.21,2.73-18.46
					c-0.56-6.49-2.68-12.77-3.14-19.27c-0.15-2.18-0.12-4.38-0.61-6.51c-0.49-2.13-1.59-4.23-3.47-5.36"/>
				<path class="st4" d="M866.84-604.8c2.49-5.3,7.43-9.32,13.03-10.59c3.44-0.78,7.21-0.52,10.24,1.34
					c3.02,1.86,5.11,5.48,4.65,9.06c-0.29,2.22-1.46,4.19-2.2,6.29c-0.74,2.1-0.99,4.66,0.4,6.39c1.24,1.55,3.37,1.93,5.06,2.93
					c2.42,1.43,3.94,4.33,3.78,7.19c-0.16,2.86-1.99,5.56-4.56,6.7c2.55,0.3,4.94,1.76,6.41,3.91c1.47,2.15,2,4.95,1.42,7.51
					c-0.84,3.67-3.75,6.47-6.87,8.46c-4.34,2.75-9.38,4.35-14.48,4.58c-5.42,0.25-11.41-1.39-14.36-6.06
					c-1.93-3.06-2.23-6.89-2.44-10.53c-0.65-10.99-1.1-22-1.55-33.01c-0.07-1.77-0.14-3.57,0.26-5.29"/>
				<path class="st5" d="M883.7-554.44l49.75,17.99l-4.75-19.38l12.94-3.17c0,0,13.92,37.88,4.25,38.89
					c-16.92,1.78-42.52-4.69-42.52-4.69L883.7-554.44z"/>
				<path class="st6" d="M880.5-471.07c0,0,59.2-64.87,99.16-50.71c39.96,14.16,56.84,80.23,56.84,80.23l-31.83-0.52
					c0,0-25.14-49.9-37.4-47.97c-12.27,1.94-50.15,49.43-50.15,49.43L880.5-471.07z"/>
				<path class="st7" d="M898.82-509.9l2.48,37.77c-12.86,15.63-57.64-4.58-57.64-4.58l-0.52-15.79l-1.04-37.61
					c1.03-14.98,15.11-22.33,15.11-22.33c5.82-2.87,14.69-4.49,22.69-4.1c8.35,0.41,10.41,4.36,13.85,11.88
					C896.51-538.58,904.05-528.67,898.82-509.9"/>
				<path class="st6" d="M852.77-470.11c0,0-6.82,28.66,13.96,33.18c20.78,4.52,97.2-6.05,117.11-4.24
					c19.9,1.8,76.51,5.22,76.51,5.22l4.15-34.03c0,0-88.09-4.36-98.05-1.8C956.49-469.24,852.77-470.11,852.77-470.11"/>
				<path class="st5" d="M861.9-518.2c0,0-6.27,36.96,2.57,36.05c29.09-2.99,46.4-3.39,46.4-3.39l4.82,10.01
					c0.11,1.71-55.08,17.51-63.95,12.28c-6.26-3.69-16.24-13.62-11.71-43.32l1.07-9.95L861.9-518.2z"/>
				<polygon class="st8" points="888.56,-465.4 888.5,-467.92 924.91,-473.16 934.57,-507.6 974.9,-508.6 964.02,-471.32 				"/>
				<path class="st9" d="M954.1-489.48c0.04,1.77-1.35,3.23-3.12,3.28c-1.77,0.04-3.23-1.36-3.28-3.12
					c-0.04-1.76,1.36-3.23,3.12-3.28C952.59-492.64,954.06-491.24,954.1-489.48"/>
				<path class="st9" d="M954.9-490.71c0.06,2.43-1.86,4.45-4.29,4.51s-4.45-1.86-4.51-4.29c-0.06-2.43,1.86-4.45,4.29-4.5
					C952.82-495.06,954.84-493.14,954.9-490.71"/>
				<path class="st7" d="M846.34-542.67c0,0-6.73,6.45-8.24,30.87l26.06-2.88C864.16-514.68,868.5-556.26,846.34-542.67"/>
				<path class="st8" d="M1038.1-615.34c0,0,9.28,21.42,11.86,20.3c2.59-1.12,26.54-16.41,26.54-16.41s-9.82-19.18-11.86-20.3
					C1062.6-632.87,1038.1-615.34,1038.1-615.34"/>
				<path class="st10" d="M1064.49-630.2c0.12,0.04-0.56,2.05-1.75,5.25c-1.19,3.21-2.9,7.62-4.83,12.47
					c-0.05,0.12-0.1,0.24-0.14,0.35l-0.13,0.33l-0.37-0.06c-5.33-0.82-10.14-1.61-13.6-2.21s-5.59-1.04-5.57-1.16
					c0.02-0.11,2.18,0.11,5.67,0.57c3.49,0.46,8.31,1.15,13.64,1.96l-0.49,0.27c0.04-0.11,0.09-0.23,0.14-0.35
					c1.93-4.85,3.73-9.23,5.08-12.38C1063.48-628.31,1064.37-630.24,1064.49-630.2"/>
				<path class="st10" d="M1046.95-597.4c-0.28-0.05,0.55-3.33,1.84-7.31c1.3-3.99,2.58-7.16,2.85-7.09
					c0.27,0.07-0.55,3.35-1.84,7.32C1048.51-600.52,1047.23-597.35,1046.95-597.4"/>
				<path class="st10" d="M1074.9-615.85c-0.04,0.16-3.47-0.05-7.67-0.46c-4.2-0.41-7.57-0.87-7.53-1.03
					c0.04-0.16,3.48,0.05,7.67,0.46C1071.57-616.47,1074.94-616.01,1074.9-615.85"/>
				<path class="st5" d="M860.12-593.07l0.58,7.9c0,0-6.53,0.91-4.67,7.03c1.86,6.13,6.33,3.45,6.33,3.45s1.12,15.7,16.76,10.72
					c12.45-3.96,11.69-20.54,10.11-34.66c-0.61-5.47-5.65-9.24-10.91-8.18l-9.4,1.88C863.48-603.85,859.7-598.75,860.12-593.07"/>
				<path class="st5" d="M860.5-579.8l4.27,23.51c0.96,5.3,6.02,8.68,11.11,7.43c4.71-1.16,7.72-5.9,6.88-10.82l-2.32-13.47
					L860.5-579.8z"/>
				<path class="st4" d="M878.12-578.83c0.05-0.04,0.14,0.2,0.36,0.23c0.21,0.03,0.53-0.26,0.61-0.88c0.11-0.61,0.05-1.41-0.02-2.34
					c-0.06-1-0.11-1.98-0.17-3.01c-0.2-4.28-0.21-7.76-0.03-7.78c0.19-0.02,0.5,3.44,0.7,7.72c0.04,1.04,0.08,2.02,0.11,3.02
					c0.03,0.92,0.05,1.82-0.15,2.57c-0.16,0.78-0.76,1.27-1.13,1.04C878.04-578.5,878.09-578.84,878.12-578.83"/>
				<path class="st4" d="M882.89-566.98c0.07,0.11-0.56,1.01-1.87,1.98c-1.3,0.97-3.32,1.93-5.66,1.99
					c-2.33,0.07-4.39-0.78-5.72-1.68c-1.34-0.9-2-1.77-1.94-1.88c0.12-0.33,3.23,2.52,7.64,2.38
					C879.75-564.28,882.77-567.3,882.89-566.98"/>
				<path class="st4" d="M879.68-575.21c0.09,0.07-0.11,0.61-0.79,1.13c-0.66,0.52-1.87,0.93-3.14,0.5
					c-1.27-0.45-2.03-1.56-2.28-2.4c-0.27-0.86-0.15-1.42-0.04-1.42c0.13-0.01,0.24,0.49,0.6,1.13c0.35,0.64,1.03,1.43,1.99,1.77
					c0.96,0.33,1.94,0.12,2.57-0.18C879.23-574.97,879.58-575.3,879.68-575.21"/>
				<path class="st4" d="M860.48-577.61c0,0.12-0.29,0.34-0.8,0.1c-0.25-0.12-0.57-0.46-0.71-1.05c-0.07-0.29-0.1-0.64-0.03-1.01
					c0.06-0.36,0.28-0.75,0.52-0.87c0.33-0.21,0.8-0.09,1.02,0.49l-0.57,0.46c-0.37-1.48-0.56-2.61-0.42-2.7
					c0.14-0.1,0.56,0.87,1.01,2.3l-0.57,0.46c-0.01-0.03-0.11-0.1-0.22-0.03c-0.13,0.06-0.18,0.29-0.14,0.6
					c0.04,0.29,0.17,0.51,0.32,0.68C860.19-577.86,860.49-577.76,860.48-577.61"/>
				<path class="st4" d="M883.96-589.4c-0.22,0.04-0.52-0.29-0.67-0.73c-0.14-0.44-0.08-0.83,0.15-0.86
					c0.22-0.04,0.52,0.29,0.66,0.73C884.25-589.82,884.18-589.44,883.96-589.4"/>
				<path class="st4" d="M869.62-588.6c-0.22,0.04-0.54-0.28-0.72-0.72c-0.18-0.44-0.14-0.83,0.08-0.87
					c0.22-0.04,0.54,0.28,0.72,0.72C869.88-589.04,869.84-588.65,869.62-588.6"/>
				<path class="st4" d="M871.69-591.97c-0.08,0.22-0.78,0.22-1.57,0.42c-0.79,0.18-1.4,0.51-1.59,0.35
					c-0.19-0.14,0.3-0.9,1.36-1.15C870.96-592.62,871.79-592.18,871.69-591.97"/>
				<path class="st4" d="M884.49-595.66c-0.09,0.22-0.78,0.11-1.58,0.19c-0.81,0.06-1.47,0.3-1.59,0.1
					c-0.13-0.18,0.49-0.84,1.52-0.93C883.87-596.39,884.59-595.86,884.49-595.66"/>
				<path class="st4" d="M859.87-585.02c4.34-4.36,5.62-11.63,6.79-17.76c4.02,3.02,9.55,3.76,14.18,1.9
					c1.45,1.76,3.16,3.3,5.05,4.55c0.54,0.36,1.17,0.7,1.79,0.51c0.73-0.23,1.05-1.09,1.23-1.85c0.56-2.44,0.58-5.06-0.25-7.42
					c-0.83-2.36-2.56-4.43-4.83-5.34c-2.43-0.97-5.16-0.55-7.68,0.12c-3.8,1.02-7.45,2.57-10.84,4.62
					c-3.32,2.01-6.51,4.66-7.92,8.35c-1.41,3.69-1.4,10.87,1.99,12.74"/>
				<path class="st11" d="M875.38-572.65c-1.2-0.33-1.59-1.95-1.01-3.06c0.58-1.12,1.35-1.78,1.8-1.68
					c0.44,0.14,0.94,1.15,1.11,2.47C877.46-573.61,876.58-572.33,875.38-572.65z"/>
				<path class="st12" d="M869.39-579.01c-1.91,0.1-3.39-1.12-3.29-2.43c0.1-1.32,1.49-2.26,3.1-2.36c1.62-0.08,3.07,0.71,3.27,2.02
					C872.68-580.48,871.31-579.11,869.39-579.01z"/>
				<path class="st12" d="M886.22-579.81c-1.95,0.11-3.43-1.12-3.31-2.43c0.12-1.32,1.5-2.27,3.07-2.36
					c1.58-0.08,3.04,0.71,3.29,2.02C889.52-581.28,888.17-579.91,886.22-579.81z"/>
				<path class="st1" d="M860.65-565.4c-0.23-0.01-0.36-2.51-0.51-5.59c-0.14-3.08-0.25-5.58-0.02-5.61
					c0.22-0.03,0.71,2.45,0.85,5.57C861.12-567.92,860.87-565.39,860.65-565.4"/>
				<path class="st7" d="M887.27-555.64c-4.13-1.68,27.63,10.39,27.63,10.39L911.68-523l-12.08-4.06L887.27-555.64z"/>
				<path class="st4" d="M866.7-605.66c0.93-1.73,1.23-3.94,0.82-5.95c-0.34-1.65-1.35-3.29-2.73-3.38
					c-0.78-0.05-1.54,0.42-2.12,1.08c-1.42,1.63-1.79,4.49-0.84,6.58c0.95,2.09,3.12,3.2,4.99,2.55"/>
				<path class="st4" d="M1063.21-462.6c0,0,10.45-15.28,9.18-9.49c-1.27,5.78-11.89,31.49-11.89,31.49L1063.21-462.6z"/>
				<path class="st5" d="M907.98-486.02c0,0,14.31-4.59,13.82-3.08c-0.49,1.51-2.93,1.56-5.36,4c0,0,16,0.18,15.23,1.52
					c-0.77,1.35-11.18,1.69-11.25,1.91c-0.06,0.23,11.39,0.52,11.14,1.76c-0.26,1.25-10.9,0.94-10.9,0.94s9.87,1.07,9.67,2.41
					c-0.2,1.34-9.3,0.38-9.3,0.38s7.61,0.89,7.41,2.11c-0.12,0.74-22.29,0.91-22.34,1.45C906.08-472.32,907.98-486.02,907.98-486.02
					"/>
				<path class="st5" d="M929.68-555.8c0,0-8.99-11.66-7.39-11.66c1.6,0.01,2.44,2.2,5.55,3.7c0,0-4.97-14.58-3.43-14.28
					c1.54,0.31,5.21,9.67,5.45,9.66c0.24-0.01-3.17-10.5-1.89-10.63c1.28-0.13,4.4,9.63,4.4,9.63s-2.14-9.27-0.79-9.48
					c1.35-0.21,3.35,8.34,3.35,8.34s-1.59-7.17-0.36-7.35c0.75-0.11,7.53,17.69,7.53,17.69C941.92-560.18,929.68-555.8,929.68-555.8
					"/>
				<path class="st13" d="M850.52-522.2c0.08-0.01,0.37,0.58,0.38,1.74c0,0.57-0.2,1.39-0.82,1.9c-0.29,0.26-0.73,0.44-1.19,0.32
					c-0.45-0.11-0.79-0.47-1.03-0.78c-0.49-0.67-0.82-1.07-1.32-1.14c-0.49-0.09-0.92,0.1-1.2,0.4c-0.59,0.63-0.57,1.35-0.69,1.34
					c-0.08,0.06-0.39-0.78,0.28-1.8c0.32-0.49,0.98-0.88,1.7-0.8c0.36,0.04,0.74,0.18,1.06,0.47c0.31,0.28,0.54,0.61,0.76,0.89
					c0.8,1.26,1.84,0.03,1.89-0.88C850.46-521.48,850.39-522.19,850.52-522.2"/>
				<path class="st13" d="M857.31-529.31c-0.06-0.08,0.25-0.69,1.18-1.33c0.46-0.3,1.23-0.54,1.99-0.18
					c0.37,0.17,0.77,0.52,0.94,1.05c0.17,0.52,0.08,1.07-0.03,1.48c-0.26,0.87-0.39,1.41-0.16,1.98c0.2,0.55,0.6,0.9,1.01,1.02
					c0.84,0.27,1.41-0.14,1.47-0.01c0.09,0.05-0.4,0.81-1.6,0.68c-0.57-0.07-1.26-0.53-1.61-1.32c-0.17-0.39-0.27-0.86-0.23-1.35
					c0.04-0.47,0.18-0.89,0.28-1.26c0.56-1.5-1.02-1.91-1.78-1.48C857.91-529.64,857.39-529.18,857.31-529.31"/>
				<path class="st13" d="M857.31-546.11c-0.06-0.08,0.25-0.69,1.18-1.33c0.46-0.3,1.23-0.54,1.99-0.18
					c0.37,0.17,0.77,0.52,0.93,1.05c0.17,0.52,0.08,1.07-0.03,1.48c-0.26,0.87-0.39,1.41-0.16,1.97c0.2,0.55,0.6,0.9,1,1.03
					c0.84,0.27,1.41-0.14,1.47-0.01c0.09,0.05-0.4,0.81-1.6,0.68c-0.57-0.07-1.26-0.53-1.61-1.32c-0.17-0.39-0.27-0.86-0.23-1.35
					c0.04-0.47,0.18-0.89,0.28-1.26c0.56-1.5-1.02-1.91-1.78-1.48C857.91-546.43,857.39-545.98,857.31-546.11"/>
				<path class="st13" d="M874.5-523.81c-0.08,0.06-0.74-0.19-1.5-1.02c-0.36-0.41-0.68-1.13-0.39-1.88c0.14-0.37,0.46-0.77,1-0.97
					c0.53-0.2,1.1-0.15,1.54-0.08c0.93,0.18,1.51,0.27,2.07,0c0.55-0.23,0.87-0.64,0.96-1.03c0.2-0.82-0.29-1.33-0.16-1.4
					c0.04-0.09,0.89,0.32,0.87,1.47c-0.02,0.55-0.42,1.24-1.21,1.63c-0.39,0.2-0.87,0.32-1.38,0.32c-0.5-0.01-0.94-0.11-1.34-0.17
					c-1.61-0.42-1.88,1.11-1.36,1.81C874.1-524.36,874.63-523.9,874.5-523.81"/>
				<path class="st13" d="M886.1-506.85c0.05,0.08-0.31,0.64-1.32,1.19c-0.5,0.26-1.32,0.42-2.09,0.02
					c-0.38-0.19-0.77-0.56-0.9-1.09c-0.14-0.52,0-1.03,0.14-1.43c0.33-0.82,0.51-1.34,0.31-1.89c-0.18-0.54-0.57-0.91-0.98-1.07
					c-0.85-0.32-1.48,0.03-1.54-0.1c-0.09-0.06,0.48-0.75,1.72-0.53c0.59,0.11,1.28,0.61,1.59,1.4c0.15,0.39,0.23,0.85,0.14,1.32
					c-0.08,0.45-0.26,0.84-0.38,1.2c-0.69,1.4,0.93,1.92,1.76,1.56C885.44-506.59,886.02-506.98,886.1-506.85"/>
				<path class="st13" d="M899.7-534.05c0.05,0.08-0.31,0.64-1.32,1.19c-0.5,0.25-1.32,0.42-2.09,0.02
					c-0.38-0.19-0.77-0.56-0.9-1.09c-0.14-0.52,0-1.03,0.14-1.43c0.33-0.82,0.51-1.34,0.31-1.9c-0.18-0.54-0.57-0.91-0.98-1.07
					c-0.85-0.32-1.48,0.03-1.54-0.1c-0.09-0.06,0.48-0.76,1.72-0.53c0.59,0.11,1.28,0.61,1.59,1.4c0.16,0.39,0.23,0.85,0.14,1.32
					c-0.08,0.45-0.26,0.84-0.38,1.19c-0.69,1.4,0.93,1.92,1.76,1.57C899.04-533.79,899.62-534.18,899.7-534.05"/>
				<path class="st13" d="M907.66-537.38c0.06-0.07,0.74,0.08,1.65,0.82c0.43,0.37,0.89,1.06,0.77,1.88
					c-0.05,0.4-0.28,0.87-0.75,1.16c-0.46,0.29-1.01,0.33-1.46,0.33c-0.92-0.04-1.5-0.03-1.97,0.33c-0.47,0.33-0.69,0.81-0.7,1.23
					c-0.01,0.88,0.56,1.33,0.45,1.42c-0.02,0.1-0.91-0.19-1.14-1.38c-0.1-0.57,0.14-1.35,0.8-1.88c0.33-0.27,0.76-0.47,1.25-0.55
					c0.48-0.07,0.92-0.04,1.31-0.04c1.63,0.18,1.55-1.45,0.91-2.08C908.16-536.88,907.56-537.27,907.66-537.38"/>
				<path class="st13" d="M870.9-492.45c0.05,0.08-0.31,0.64-1.32,1.19c-0.5,0.25-1.32,0.42-2.09,0.02
					c-0.38-0.19-0.77-0.56-0.9-1.09c-0.14-0.52,0-1.03,0.14-1.43c0.33-0.82,0.51-1.34,0.31-1.89c-0.18-0.54-0.57-0.91-0.98-1.07
					c-0.86-0.32-1.48,0.03-1.54-0.1c-0.09-0.06,0.48-0.75,1.72-0.53c0.59,0.11,1.28,0.61,1.59,1.4c0.15,0.39,0.22,0.85,0.14,1.32
					c-0.08,0.45-0.26,0.84-0.38,1.19c-0.69,1.4,0.93,1.92,1.76,1.57C870.24-492.19,870.82-492.58,870.9-492.45"/>
				<path class="st13" d="M890.89-519.01c-0.08,0.05-0.67-0.28-1.27-1.24c-0.28-0.47-0.49-1.26-0.11-2.03
					c0.18-0.37,0.54-0.77,1.07-0.92c0.52-0.16,1.05-0.05,1.46,0.08c0.85,0.29,1.38,0.44,1.94,0.22c0.55-0.19,0.9-0.59,1.04-0.99
					c0.29-0.85-0.09-1.44,0.04-1.5c0.05-0.09,0.79,0.43,0.62,1.65c-0.09,0.58-0.56,1.27-1.35,1.6c-0.39,0.17-0.86,0.25-1.34,0.19
					c-0.47-0.06-0.87-0.21-1.23-0.32c-1.46-0.62-1.92,0.98-1.52,1.77C890.59-519.63,891.02-519.09,890.89-519.01"/>
				<path class="st13" d="M894.89-505.41c-0.08,0.05-0.67-0.28-1.27-1.24c-0.28-0.47-0.49-1.26-0.11-2.03
					c0.18-0.37,0.54-0.77,1.07-0.92c0.52-0.16,1.05-0.05,1.46,0.08c0.85,0.29,1.38,0.44,1.94,0.22c0.55-0.19,0.9-0.59,1.04-0.99
					c0.29-0.85-0.09-1.44,0.04-1.5c0.05-0.09,0.79,0.43,0.62,1.64c-0.09,0.58-0.56,1.27-1.36,1.6c-0.39,0.17-0.86,0.25-1.34,0.19
					c-0.47-0.06-0.87-0.21-1.23-0.32c-1.46-0.62-1.92,0.98-1.52,1.77C894.59-506.03,895.02-505.49,894.89-505.41"/>
				<path class="st13" d="M866.25-510.2c-0.09-0.01-0.27-0.73-0.05-2c0.12-0.61,0.49-1.45,1.25-1.83c0.36-0.19,0.86-0.27,1.32-0.01
					c0.45,0.25,0.74,0.73,0.93,1.14c0.38,0.87,0.64,1.39,1.16,1.61c0.49,0.23,0.99,0.15,1.35-0.09c0.75-0.51,0.88-1.3,1-1.26
					c0.1-0.04,0.25,0.95-0.66,1.87c-0.44,0.44-1.21,0.68-1.96,0.39c-0.37-0.14-0.74-0.41-1.03-0.81c-0.28-0.39-0.45-0.82-0.62-1.18
					c-0.58-1.59-1.93-0.55-2.18,0.42C866.46-510.96,866.39-510.17,866.25-510.2"/>
				<path class="st13" d="M891.85-492.6c-0.09-0.01-0.27-0.73-0.05-2c0.12-0.61,0.49-1.45,1.25-1.83c0.36-0.19,0.86-0.27,1.32-0.01
					c0.45,0.25,0.74,0.73,0.93,1.14c0.38,0.87,0.64,1.39,1.16,1.61c0.49,0.23,0.99,0.15,1.35-0.09c0.75-0.51,0.88-1.3,1-1.26
					c0.1-0.04,0.25,0.95-0.66,1.87c-0.44,0.44-1.21,0.68-1.95,0.39c-0.37-0.14-0.74-0.41-1.03-0.81c-0.28-0.39-0.45-0.82-0.62-1.18
					c-0.58-1.59-1.93-0.55-2.18,0.42C892.06-493.36,891.99-492.57,891.85-492.6"/>
				<path class="st13" d="M891.85-546.2c-0.09-0.01-0.27-0.73-0.05-1.99c0.12-0.61,0.49-1.45,1.25-1.83
					c0.36-0.2,0.86-0.27,1.32-0.01c0.45,0.24,0.74,0.73,0.93,1.13c0.38,0.87,0.64,1.39,1.16,1.61c0.49,0.23,0.99,0.15,1.35-0.09
					c0.75-0.51,0.88-1.3,1-1.26c0.1-0.04,0.25,0.95-0.66,1.87c-0.44,0.44-1.21,0.68-1.95,0.39c-0.37-0.14-0.74-0.41-1.03-0.81
					c-0.28-0.39-0.45-0.82-0.62-1.18c-0.58-1.59-1.93-0.55-2.18,0.42C892.06-546.96,891.99-546.17,891.85-546.2"/>
				<path class="st13" d="M882.71-486.23c-0.06,0.08-0.81,0-1.9-0.61c-0.52-0.31-1.12-0.92-1.11-1.74
					c-0.01-0.39,0.17-0.87,0.63-1.21c0.45-0.33,1.04-0.43,1.52-0.48c1-0.06,1.61-0.13,2.07-0.53c0.46-0.37,0.62-0.85,0.57-1.26
					c-0.12-0.85-0.8-1.22-0.7-1.33c0.01-0.1,1.01,0.08,1.43,1.21c0.2,0.54,0.06,1.32-0.58,1.91c-0.31,0.29-0.74,0.54-1.26,0.67
					c-0.5,0.12-0.98,0.14-1.41,0.18c-1.78,0.01-1.45,1.58-0.66,2.12C882.1-486.66,882.8-486.35,882.71-486.23"/>
				<path class="st13" d="M852.81-539c0.08-0.05,0.61,0.36,1.09,1.44c0.22,0.53,0.34,1.39-0.1,2.17c-0.2,0.38-0.59,0.76-1.11,0.88
					c-0.51,0.12-1.01-0.05-1.39-0.22c-0.78-0.39-1.27-0.61-1.83-0.43c-0.54,0.15-0.92,0.54-1.1,0.96c-0.36,0.87-0.06,1.54-0.19,1.59
					c-0.06,0.09-0.71-0.54-0.42-1.81c0.14-0.61,0.66-1.3,1.45-1.57c0.39-0.14,0.84-0.18,1.29-0.07c0.44,0.11,0.81,0.31,1.15,0.46
					c1.33,0.8,1.93-0.86,1.62-1.74C853.04-538.3,852.68-538.92,852.81-539"/>
				<path class="st13" d="M881.61-543c0.08-0.05,0.61,0.36,1.09,1.44c0.22,0.53,0.34,1.39-0.1,2.17c-0.2,0.38-0.59,0.76-1.11,0.88
					c-0.51,0.12-1.01-0.05-1.39-0.23c-0.78-0.39-1.27-0.61-1.83-0.43c-0.54,0.15-0.92,0.54-1.1,0.96c-0.36,0.87-0.06,1.54-0.19,1.59
					c-0.06,0.09-0.71-0.54-0.42-1.81c0.14-0.61,0.66-1.3,1.45-1.57c0.39-0.14,0.84-0.19,1.29-0.08c0.44,0.11,0.81,0.31,1.15,0.46
					c1.33,0.8,1.93-0.86,1.62-1.74C881.84-542.3,881.48-542.92,881.61-543"/>
				<path class="st4" d="M863.77-511.8c-0.06-0.01-0.05-0.67,0.02-1.87c0.07-1.2,0.21-2.93,0.39-5.07
					c0.37-4.27,0.96-10.17,1.64-16.66c0.16-1.61,0.24-3.18,0.02-4.65c-0.2-1.47-0.76-2.78-1.56-3.85c-1.63-2.16-3.94-3.28-5.91-3.76
					c-1.99-0.49-3.69-0.47-4.85-0.43c-1.16,0.04-1.81,0.12-1.82,0.04c-0.01-0.06,0.62-0.25,1.79-0.41c1.17-0.15,2.91-0.28,5.03,0.15
					c2.08,0.42,4.61,1.54,6.44,3.88c0.91,1.15,1.56,2.65,1.79,4.24c0.25,1.59,0.16,3.24,0,4.88c-0.69,6.51-1.38,12.39-1.91,16.64
					c-0.27,2.13-0.5,3.85-0.69,5.03C863.97-512.44,863.83-511.79,863.77-511.8"/>
				<path class="st4" d="M866.1-513.36c0.03,0.13-6.04,0.58-13.55,1c-7.51,0.42-13.62,0.65-13.65,0.52c-0.03-0.13,6.04-0.58,13.55-1
					C859.96-513.26,866.07-513.5,866.1-513.36"/>
				<path class="st4" d="M900.26-517.4c-0.29-0.03,1.1-5.2-0.48-11.37c-1.48-6.19-5.11-10.06-4.87-10.23
					c0.07-0.07,1.06,0.78,2.3,2.49c1.24,1.71,2.62,4.35,3.41,7.52c0.78,3.17,0.79,6.17,0.5,8.27
					C900.84-518.6,900.35-517.37,900.26-517.4"/>
				<path class="st14" d="M969.49-517.21c0.22-1.45,0.18-2.83,1-4.11c1.64-2.55,3.97-1.91,6.24-0.79c2.3,1.14,4.46,1.82,6.95,0.76
					c3.93-1.68,5.67-7.41,2.01-10.17c-1.19-0.9-2.41,0.58-2.23,1.69c0.25,1.56,1.02,3.28-0.34,4.63c-1.82,1.79-3.95,0.29-5.77-0.52
					c-1.95-0.87-4.02-1.06-6.04-0.26c-3.47,1.38-6,6.01-3.24,9.15C968.46-516.4,969.39-516.6,969.49-517.21"/>
				<path class="st7" d="M979.71-584.95c0.36,2.43,2.77,7.56,5.31,8.27c1.35,0.38,2.35-0.55,3.4-1.31c1.91-1.38,3.79-2.78,5.68-4.19
					c0.68-0.51,1.09-1.48,0.58-2.3c-1.67-2.69-3.34-5.38-5.01-8.07c-0.44-0.71-1.46-1.15-2.2-0.6c-2.09,1.54-4.32,2.97-6.22,4.76
					c-1.3,1.22,0.36,3.31,1.82,2.47c2.12-1.21,4.05-2.87,6.02-4.33c-0.73-0.2-1.47-0.4-2.2-0.6c1.67,2.69,3.34,5.38,5.01,8.06
					c0.19-0.77,0.39-1.54,0.58-2.3c-1.13,0.84-2.27,1.68-3.4,2.53c-0.57,0.42-2.88,2.64-3.5,2.49c-0.73-0.17-1.91-2.37-2.37-2.95
					c-0.8-1-1.55-1.94-2.59-2.68C980.12-586.05,979.63-585.46,979.71-584.95"/>
				<path class="st3" d="M956.05-559.86c-2.81,2.52-3.88,6.45-1.2,9.48c2.53,2.85,7.42,3.46,10.57,1.19
					c7.62-5.49-0.32-15.63-8.55-13.53c-1.52,0.39-1.14,2.42,0.36,2.5c2.4,0.13,4.98,0.21,6.9,1.79c2.06,1.69,2.11,4.55,0.42,6.49
					c-4.48,5.15-12.27-2.43-7.56-7.03C957.59-559.56,956.67-560.41,956.05-559.86"/>
				<path class="st15" d="M1018.12-536.04c-0.91,5.04-1.68,10.08-2.4,15.15c-0.17,1.22,0.61,2.04,1.74,1.86
					c4.45-0.69,8.89-1.33,13.28-2.37c0.84-0.2,1.19-1.31,0.79-2.07c-2.49-4.69-5.66-11.22-10.34-13.77
					c-1.19-0.65-2.86,0.75-1.98,2.12c1.39,2.15,3.46,3.75,5.08,5.72c1.87,2.26,3.62,4.7,4.97,7.36c0.38-0.71,0.76-1.41,1.14-2.12
					c-4.6,0.48-9.13,1.37-13.68,2.21c0.6,0.49,1.2,0.97,1.79,1.46c0.55-5.1,1.04-10.18,1.39-15.3
					C1019.98-536.86,1018.32-537.11,1018.12-536.04"/>
				<path class="st16" d="M996.3-545.26c1.29-4.77,2.34-9.9,2.6-14.79c0.08-1.52-2.93-1.9-3.27-0.37c-1.09,4.84-1.48,10-1.53,14.91
					C994.09-544.48,996.02-544.22,996.3-545.26"/>
				<path class="st7" d="M1049.93-545.9c4.6,0.87,9.46,1.48,14.11,1.25c1.71-0.08,1.64-3.29,0-3.52c-4.54-0.64-9.33-0.5-13.88-0.06
					C1049.25-548.13,1048.89-546.09,1049.93-545.9"/>
				<path class="st15" d="M1010.53-607.02c4.12,2.12,8.64,4.19,13.1,5.56c1.41,0.43,2.36-1.66,1.02-2.3
					c-4.2-2.01-8.93-3.56-13.43-4.81C1010.26-608.83,1009.64-607.48,1010.53-607.02"/>
				<path class="st4" d="M1024.41-568.28c-0.09-0.08-0.18-0.16-0.28-0.24c-1.21-1.07-3.18-1.27-4.36,0c-1.19,1.29-1.14,3.06,0,4.35
					c0.08,0.09,0.16,0.18,0.24,0.27c1.08,1.22,3.3,1.18,4.39,0C1025.49-565.07,1025.7-567.13,1024.41-568.28"/>
				<path class="st1" d="M916.23-656.09c-4.84,1.6-8.85,5.54-10.6,10.36c-1.75,4.82-1.23,10.41,1.32,14.85
					c4.92,8.55,17.56,11.3,25.55,5.56c7.99-5.73,9.53-18.67,3.12-26.15c-6.41-7.48-19.34-7.82-26.13-0.69"/>
			</g>
		</g>
	</g>
</g>
<g id="MasterLayer_1">
</g>
</svg>
